<?xml version="1.0" encoding="iso-8859-1" standalone="no"?> 
<?xml-stylesheet href="latex-Pl3gqg.css" type="text/css"?> 
<svg xmlns="http://www.w3.org/2000/svg" xmlns:xlink="http://www.w3.org/1999/xlink" width="102.43085pt" height="145.96184pt" viewBox="-51.21542 -17.07138 102.43085 145.96184 "> 
<g transform="translate(0, 128.89046 ) scale(1,-1) translate(0,17.07138 )"> 
                   <g stroke="#000" fill="#000">
 <g stroke-width="0.4">
 <clipPath id="pgfcp1"><path d=" M -51.21542 -17.07138 M -51.21542 -17.07138 L -51.21542 128.89046 L 51.21542 128.89046 L 51.21542 -17.07138 Z M 51.21542 128.89046  "/> </clipPath>
 <g clip-path="url(#pgfcp1)">
 <g stroke="#808080" fill="#808080">
 <g stroke-width="0.2">
 <path d=" M -119.50099 -119.50099 M -119.50099 -85.35818 L 119.50099 -85.35818 M -119.50099 -42.6791 L 119.50099 -42.6791 M -119.50099 0.0 L 119.50099 0.0 M -119.50099 42.6791 L 119.50099 42.6791 M -119.50099 85.35818 L 119.50099 85.35818 M -85.35818 -119.50099 L -85.35818 119.50099 M -42.6791 -119.50099 L -42.6791 119.50099 M 0.0 -119.50099 L 0.0 119.50099 M 42.6791 -119.50099 L 42.6791 119.50099 M 85.35818 -119.50099 L 85.35818 119.50099 M 119.50099 119.50099  " fill="none"/>
 </g>
 </g>
 <g fill="#cfc">
 <g stroke="#008000">
 <path d=" M 0.0 0.0 L 25.60744 0.0 C 25.60744 4.49387 24.42366 8.91193 22.17673 12.8037 Z  " />
 </g>
 </g>
 <path d=" M -128.03732 0.0 L 127.63733 0.0  " fill="none"/>
 <g transform="translate(127.83733,0.0)">
 <g stroke-dasharray="none" stroke-dashoffset="0.0">
 <g stroke-linecap="round">
 <g stroke-linejoin="round">
 <path d=" M -2.07999 2.39998 C -1.69998 0.95998 -0.85318 0.28 0.0 0.0 C -0.85318 -0.28 -1.69998 -0.95998 -2.07999 -2.39998  " fill="none"/>
 </g>
 </g>
 </g>
  </g>
 <path d=" M 0.0 -128.03732 L 0.0 127.63733  " fill="none"/>
 <g transform="matrix(0.0,1.0,-1.0,0.0,0.0,127.83733)">
 <g stroke-dasharray="none" stroke-dashoffset="0.0">
 <g stroke-linecap="round">
 <g stroke-linejoin="round">
 <path d=" M -2.07999 2.39998 C -1.69998 0.95998 -0.85318 0.28 0.0 0.0 C -0.85318 -0.28 -1.69998 -0.95998 -2.07999 -2.39998  " fill="none"/>
 </g>
 </g>
 </g>
  </g>
 <path d=" M 0.0 0.0 M 85.35823 0.0 C 85.35823 47.14265 47.14265 85.35823 0.0 85.35823 C -47.14265 85.35823 -85.35823 47.14265 -85.35823 0.0 C -85.35823 -47.14265 -47.14265 -85.35823 0.0 -85.35823 C 47.14265 -85.35823 85.35823 -47.14265 85.35823 0.0 Z M 0.0 0.0  " fill="none"/>
 <path d=" M -85.35823 3.0 L -85.35823 -3.0  " fill="none"/>
 <g transform="translate(-93.9693,-12.97742)">
 <g fill="#000">
 <text style="stroke:none" transform="scale(1,-1) translate(8.61107,0)" text-anchor="middle"  font-size="10"> 
<g fill="#000">
 <g stroke="none">  <tspan font-family="cmsy" font-size="10">- </tspan>1</g> </g>
 </text> 
</g>
 </g>
 <path d=" M -42.6791 3.0 L -42.6791 -3.0  " fill="none"/>
 <g transform="translate(-55.17906,-12.97742)">
 <g fill="#000">
 <text style="stroke:none" transform="scale(1,-1) translate(12.49997,0)" text-anchor="middle"  font-size="10"> 
<g fill="#000">
 <g stroke="none">  <tspan font-family="cmsy" font-size="10">- </tspan>0<tspan font-family="cmmi" font-size="10">.</tspan>5</g> </g>
 </text> 
</g>
 </g>
 <path d=" M 85.35823 3.0 L 85.35823 -3.0  " fill="none"/>
 <g transform="translate(82.85823,-12.9774)">
 <g fill="#000">
 <text style="stroke:none" transform="scale(1,-1) translate(2.5,0)" text-anchor="middle"  font-size="10"> 
<g fill="#000">
 <g stroke="none"> 1 </g> </g>
 </text> 
</g>
 </g>
 <path d=" M 3.0 -85.35823 L -3.0 -85.35823  " fill="none"/>
 <g transform="translate(-23.75511,-88.16379)">
 <g fill="#000">
 <text style="stroke:none" transform="scale(1,-1) translate(8.61107,0)" text-anchor="middle"  font-size="10"> 
<g fill="#000">
 <g stroke="none">  <tspan font-family="cmsy" font-size="10">- </tspan>1 </g> </g>
 </text> 
</g>
 </g>
 <path d=" M 3.0 -42.6791 L -3.0 -42.6791  " fill="none"/>
 <g transform="translate(-31.53291,-45.48465)">
 <g fill="#000">
 <text style="stroke:none" transform="scale(1,-1) translate(12.49997,0)" text-anchor="middle"  font-size="10"> 
<g fill="#000">
 <g stroke="none">  <tspan font-family="cmsy" font-size="10">- </tspan>0<tspan font-family="cmmi" font-size="10">.</tspan>5</g> </g>
 </text> 
</g>
 </g>
 <path d=" M 3.0 85.35823 L -3.0 85.35823  " fill="none"/>
 <g transform="translate(-11.53297,82.13602)">
 <g fill="#000">
 <text style="stroke:none" transform="scale(1,-1) translate(2.5,0)" text-anchor="middle"  font-size="10"> 
<g fill="#000">
 <g stroke="none"> 1 </g> </g>
 </text> 
</g>
 </g>
 </g>
 </g>
 </g>
 
                               </g> 
</svg> 
