<?xml version="1.0" encoding="iso-8859-1" standalone="no"?> 
<?xml-stylesheet href="latex-Mmr7cE.css" type="text/css"?> 
<svg xmlns="http://www.w3.org/2000/svg" xmlns:xlink="http://www.w3.org/1999/xlink" width="996.24594pt" height="44.34372pt" viewBox="-498.12297 -29.14372 996.24594 44.34372 "> 
<g transform="translate(0, 15.2 ) scale(1,-1) translate(0,29.14372 )"> 
                                                                                                                                                         <g stroke="#000" fill="#000">
 <g stroke-width="0.4">
 <g stroke-width="1.2">
 <path d=" M 142.26372 0.0 L 284.52744 0.0  " fill="none"/>
 </g>
 <g stroke="#000">
 <g fill="#000">
 <path d=" M 142.26372 0.0 M 152.26372 0.0 C 152.26372 5.52292 147.78664 10.0 142.26372 10.0 C 136.7408 10.0 132.26372 5.52292 132.26372 0.0 C 132.26372 -5.52292 136.7408 -10.0 142.26372 -10.0 C 147.78664 -10.0 152.26372 -5.52292 152.26372 0.0 Z M 142.26372 0.0  " />
 </g>
 </g>
 <g stroke="#000">
 <g fill="#fff">
 <g stroke-width="0.8">
 <path d=" M 284.52744 0.0 M 294.52744 0.0 C 294.52744 5.52292 290.05035 10.0 284.52744 10.0 C 279.00452 10.0 274.52744 5.52292 274.52744 0.0 C 274.52744 -5.52292 279.00452 -10.0 284.52744 -10.0 C 290.05035 -10.0 294.52744 -5.52292 294.52744 0.0 Z M 284.52744 0.0  " />
 </g>
 </g>
 </g>
 <path d=" M -494.32303 0.0 L 494.32303 0.0  " fill="none"/>
 <g transform="matrix(-1.0,0.0,0.0,-1.0,-494.32303,0.0)">
 <path d=" M 3.59995 0.0 C 2.53328 0.2 0.79999 0.79999 -0.4 1.49997 L -0.4 -1.49997 C 0.79999 -0.79999 2.53328 -0.2 3.59995 0.0  " stroke="none"/>
  </g>
 <g transform="translate(494.32303,0.0)">
 <path d=" M 3.59995 0.0 C 2.53328 0.2 0.79999 0.79999 -0.4 1.49997 L -0.4 -1.49997 C 0.79999 -0.79999 2.53328 -0.2 3.59995 0.0  " stroke="none"/>
  </g>
 <g stroke="#000" fill="#000">
 <path d=" M -426.79115 15.0 L -426.79115 -15.0  " fill="none"/>
 </g>
 <g stroke="#000" fill="#000">
 <path d=" M -284.52744 15.0 L -284.52744 -15.0  " fill="none"/>
 </g>
 <g stroke="#000" fill="#000">
 <path d=" M -142.26372 15.0 L -142.26372 -15.0  " fill="none"/>
 </g>
 <g stroke="#000" fill="#000">
 <path d=" M 0.0 15.0 L 0.0 -15.0  " fill="none"/>
 </g>
 <g stroke="#000" fill="#000">
 <path d=" M 142.26372 15.0 L 142.26372 -15.0  " fill="none"/>
 </g>
 <g stroke="#000" fill="#000">
 <path d=" M 284.52744 15.0 L 284.52744 -15.0  " fill="none"/>
 </g>
 <g stroke="#000" fill="#000">
 <path d=" M 426.79115 15.0 L 426.79115 -15.0  " fill="none"/>
 </g>
 <g stroke="#000" fill="#000">
 <path d=" M -426.79115 0.0 L -426.79115 -15.0  " fill="none"/>
 <g transform="translate(-435.40222,-24.97742)">
 <g fill="#000">
 <text style="stroke:none" transform="scale(1,-1) translate(8.61107,0)" text-anchor="middle"  font-size="10"> 
<g fill="#000">
 <g stroke="none">  <tspan font-family="cmsy" font-size="10">- </tspan>3</g> </g>
 </text> 
</g>
 </g>
 </g>
 <g stroke="#000" fill="#000">
 <path d=" M -284.52744 0.0 L -284.52744 -15.0  " fill="none"/>
 <g transform="translate(-293.1385,-24.97742)">
 <g fill="#000">
 <text style="stroke:none" transform="scale(1,-1) translate(8.61107,0)" text-anchor="middle"  font-size="10"> 
<g fill="#000">
 <g stroke="none">  <tspan font-family="cmsy" font-size="10">- </tspan>2</g> </g>
 </text> 
</g>
 </g>
 </g>
 <g stroke="#000" fill="#000">
 <path d=" M -142.26372 0.0 L -142.26372 -15.0  " fill="none"/>
 <g transform="translate(-150.87479,-24.97742)">
 <g fill="#000">
 <text style="stroke:none" transform="scale(1,-1) translate(8.61107,0)" text-anchor="middle"  font-size="10"> 
<g fill="#000">
 <g stroke="none">  <tspan font-family="cmsy" font-size="10">- </tspan>1</g> </g>
 </text> 
</g>
 </g>
 </g>
 <g stroke="#000" fill="#000">
 <path d=" M 0.0 0.0 L 0.0 -15.0  " fill="none"/>
 <g transform="translate(-2.5,-24.9774)">
 <g fill="#000">
 <text style="stroke:none" transform="scale(1,-1) translate(2.5,0)" text-anchor="middle"  font-size="10"> 
<g fill="#000">
 <g stroke="none"> 0 </g> </g>
 </text> 
</g>
 </g>
 </g>
 <g stroke="#000" fill="#000">
 <path d=" M 142.26372 0.0 L 142.26372 -15.0  " fill="none"/>
 <g transform="translate(139.76372,-24.9774)">
 <g fill="#000">
 <text style="stroke:none" transform="scale(1,-1) translate(2.5,0)" text-anchor="middle"  font-size="10"> 
<g fill="#000">
 <g stroke="none"> 1 </g> </g>
 </text> 
</g>
 </g>
 </g>
 <g stroke="#000" fill="#000">
 <path d=" M 284.52744 0.0 L 284.52744 -15.0  " fill="none"/>
 <g transform="translate(282.02744,-24.9774)">
 <g fill="#000">
 <text style="stroke:none" transform="scale(1,-1) translate(2.5,0)" text-anchor="middle"  font-size="10"> 
<g fill="#000">
 <g stroke="none"> 2 </g> </g>
 </text> 
</g>
 </g>
 </g>
 <g stroke="#000" fill="#000">
 <path d=" M 426.79115 0.0 L 426.79115 -15.0  " fill="none"/>
 <g transform="translate(424.29115,-24.9774)">
 <g fill="#000">
 <text style="stroke:none" transform="scale(1,-1) translate(2.5,0)" text-anchor="middle"  font-size="10"> 
<g fill="#000">
 <g stroke="none"> 3 </g> </g>
 </text> 
</g>
 </g>
 </g>
 </g>
 </g>
 
                                                                                                                                                                                                                                                                                                           </g> 
</svg> 
