<?xml version="1.0" encoding="iso-8859-1" standalone="no"?> 
<?xml-stylesheet href="latex-mqUE6g.css" type="text/css"?> 
<svg xmlns="http://www.w3.org/2000/svg" xmlns:xlink="http://www.w3.org/1999/xlink" width="338.38376pt" height="54.18289pt" viewBox="-10.36769 -26.00734 338.38376 54.18289 "> 
<g transform="translate(0, 28.17555 ) scale(1,-1) translate(0,26.00734 )"> 
       <g stroke="#000" fill="#000">
 <g stroke-width="0.4">
 <g stroke-width="0.8">
 <g stroke="#000" fill="#000">
 <path d=" M 0.0 0.0 L 308.30028 0.0  " fill="none"/>
 <g transform="translate(308.30028,0.0)">
 <path d=" M 4.6799 0.0 C 3.29324 0.26 1.03998 1.03998 -0.51999 1.94995 L -0.51999 -1.94995 C 1.03998 -1.03998 3.29324 -0.26 4.6799 0.0  " stroke="none"/>
  </g>
 </g>
 <path d=" M 0.0 5.69046 L 0.0 -5.69046  " fill="none"/>
 <g fill="#fff">
 <g fill="#fff">
 <path d=" M -10.36769 11.78099 h 20.73538 v 14.22635 h -20.73538 Z  " stroke="none"/>
 </g>
 <g transform="translate(-7.03471,15.47751)">
 <g fill="#000">
 <text style="stroke:none" transform="scale(1,-1) translate(7.03471,0)" text-anchor="middle"  font-size="10"> 
<g fill="#000">
 <g stroke="none"> 2<tspan font-family="cmmi" font-size="10">X</tspan></g> </g>
 </text> 
</g>
 </g>
 </g>
 <g fill="#fff">
 <g fill="#fff">
 <path d=" M -8.53581 -26.00734 h 17.07162 v 14.22635 h -17.07162 Z  " stroke="none"/>
 </g>
 <g transform="translate(-2.5,-22.11638)">
 <g fill="#000">
 <text style="stroke:none" transform="scale(1,-1) translate(2.5,0)" text-anchor="middle"  font-size="10"> 
<g fill="#000">
 <g stroke="none"> 0 </g> </g>
 </text> 
</g>
 </g>
 </g>
 <path d=" M 28.45274 5.69046 L 28.45274 -5.69046  " fill="none"/>
 <g fill="#fff">
 <g fill="#fff">
 <path d=" M 19.91693 11.78099 h 17.07162 v 14.22635 h -17.07162 Z  " stroke="none"/>
 </g>
 <g transform="translate(28.45274,18.89417)">
 <g fill="#000">
 <text style="stroke:none" transform="scale(1,-1) translate(0.0,0)" text-anchor="middle"  font-size="10"> 
<g fill="#000">
 <g stroke="none"> </g> </g>
 </text> 
</g>
 </g>
 </g>
 <g fill="#fff">
 <g fill="#fff">
 <path d=" M 19.91693 -26.00734 h 17.07162 v 14.22635 h -17.07162 Z  " stroke="none"/>
 </g>
 <g transform="translate(25.95274,-22.11638)">
 <g fill="#000">
 <text style="stroke:none" transform="scale(1,-1) translate(2.5,0)" text-anchor="middle"  font-size="10"> 
<g fill="#000">
 <g stroke="none"> 1 </g> </g>
 </text> 
</g>
 </g>
 </g>
 <path d=" M 56.90549 5.69046 L 56.90549 -5.69046  " fill="none"/>
 <g fill="#fff">
 <g fill="#fff">
 <path d=" M 48.36967 11.78099 h 17.07162 v 14.22635 h -17.07162 Z  " stroke="none"/>
 </g>
 <g transform="translate(56.90549,18.89417)">
 <g fill="#000">
 <text style="stroke:none" transform="scale(1,-1) translate(0.0,0)" text-anchor="middle"  font-size="10"> 
<g fill="#000">
 <g stroke="none"> </g> </g>
 </text> 
</g>
 </g>
 </g>
 <g fill="#fff">
 <g fill="#fff">
 <path d=" M 48.36967 -26.00734 h 17.07162 v 14.22635 h -17.07162 Z  " stroke="none"/>
 </g>
 <g transform="translate(54.40549,-22.11638)">
 <g fill="#000">
 <text style="stroke:none" transform="scale(1,-1) translate(2.5,0)" text-anchor="middle"  font-size="10"> 
<g fill="#000">
 <g stroke="none"> 2 </g> </g>
 </text> 
</g>
 </g>
 </g>
 <path d=" M 85.35823 5.69046 L 85.35823 -5.69046  " fill="none"/>
 <g fill="#fff">
 <g fill="#fff">
 <path d=" M 76.82242 11.78099 h 17.07162 v 14.22635 h -17.07162 Z  " stroke="none"/>
 </g>
 <g transform="translate(85.35823,18.89417)">
 <g fill="#000">
 <text style="stroke:none" transform="scale(1,-1) translate(0.0,0)" text-anchor="middle"  font-size="10"> 
<g fill="#000">
 <g stroke="none"> </g> </g>
 </text> 
</g>
 </g>
 </g>
 <g fill="#fff">
 <g fill="#fff">
 <path d=" M 76.82242 -26.00734 h 17.07162 v 14.22635 h -17.07162 Z  " stroke="none"/>
 </g>
 <g transform="translate(82.85823,-22.11638)">
 <g fill="#000">
 <text style="stroke:none" transform="scale(1,-1) translate(2.5,0)" text-anchor="middle"  font-size="10"> 
<g fill="#000">
 <g stroke="none"> 3 </g> </g>
 </text> 
</g>
 </g>
 </g>
 <path d=" M 113.81097 5.69046 L 113.81097 -5.69046  " fill="none"/>
 <g fill="#fff">
 <g fill="#fff">
 <path d=" M 105.27516 11.78099 h 17.07162 v 14.22635 h -17.07162 Z  " stroke="none"/>
 </g>
 <g transform="translate(113.81097,18.89417)">
 <g fill="#000">
 <text style="stroke:none" transform="scale(1,-1) translate(0.0,0)" text-anchor="middle"  font-size="10"> 
<g fill="#000">
 <g stroke="none"> </g> </g>
 </text> 
</g>
 </g>
 </g>
 <g fill="#fff">
 <g fill="#fff">
 <path d=" M 105.27516 -26.00734 h 17.07162 v 14.22635 h -17.07162 Z  " stroke="none"/>
 </g>
 <g transform="translate(111.31097,-22.11638)">
 <g fill="#000">
 <text style="stroke:none" transform="scale(1,-1) translate(2.5,0)" text-anchor="middle"  font-size="10"> 
<g fill="#000">
 <g stroke="none"> 4 </g> </g>
 </text> 
</g>
 </g>
 </g>
 <path d=" M 142.26372 5.69046 L 142.26372 -5.69046  " fill="none"/>
 <g fill="#fff">
 <g fill="#fff">
 <path d=" M 133.7279 11.78099 h 17.07162 v 14.22635 h -17.07162 Z  " stroke="none"/>
 </g>
 <g transform="translate(142.26372,18.89417)">
 <g fill="#000">
 <text style="stroke:none" transform="scale(1,-1) translate(0.0,0)" text-anchor="middle"  font-size="10"> 
<g fill="#000">
 <g stroke="none"> </g> </g>
 </text> 
</g>
 </g>
 </g>
 <g fill="#fff">
 <g fill="#fff">
 <path d=" M 133.7279 -26.00734 h 17.07162 v 14.22635 h -17.07162 Z  " stroke="none"/>
 </g>
 <g transform="translate(139.76372,-22.11638)">
 <g fill="#000">
 <text style="stroke:none" transform="scale(1,-1) translate(2.5,0)" text-anchor="middle"  font-size="10"> 
<g fill="#000">
 <g stroke="none"> 5 </g> </g>
 </text> 
</g>
 </g>
 </g>
 <path d=" M 170.71646 5.69046 L 170.71646 -5.69046  " fill="none"/>
 <g fill="#fff">
 <g fill="#fff">
 <path d=" M 162.18065 11.78099 h 17.07162 v 14.22635 h -17.07162 Z  " stroke="none"/>
 </g>
 <g transform="translate(170.71646,18.89417)">
 <g fill="#000">
 <text style="stroke:none" transform="scale(1,-1) translate(0.0,0)" text-anchor="middle"  font-size="10"> 
<g fill="#000">
 <g stroke="none"> </g> </g>
 </text> 
</g>
 </g>
 </g>
 <g fill="#fff">
 <g fill="#fff">
 <path d=" M 162.18065 -26.00734 h 17.07162 v 14.22635 h -17.07162 Z  " stroke="none"/>
 </g>
 <g transform="translate(168.21646,-22.11638)">
 <g fill="#000">
 <text style="stroke:none" transform="scale(1,-1) translate(2.5,0)" text-anchor="middle"  font-size="10"> 
<g fill="#000">
 <g stroke="none"> 6 </g> </g>
 </text> 
</g>
 </g>
 </g>
 <path d=" M 199.1692 5.69046 L 199.1692 -5.69046  " fill="none"/>
 <g fill="#fff">
 <g fill="#fff">
 <path d=" M 190.63339 11.78099 h 17.07162 v 14.22635 h -17.07162 Z  " stroke="none"/>
 </g>
 <g transform="translate(199.1692,18.89417)">
 <g fill="#000">
 <text style="stroke:none" transform="scale(1,-1) translate(0.0,0)" text-anchor="middle"  font-size="10"> 
<g fill="#000">
 <g stroke="none"> </g> </g>
 </text> 
</g>
 </g>
 </g>
 <g fill="#fff">
 <g fill="#fff">
 <path d=" M 190.63339 -26.00734 h 17.07162 v 14.22635 h -17.07162 Z  " stroke="none"/>
 </g>
 <g transform="translate(196.6692,-22.11638)">
 <g fill="#000">
 <text style="stroke:none" transform="scale(1,-1) translate(2.5,0)" text-anchor="middle"  font-size="10"> 
<g fill="#000">
 <g stroke="none"> 7 </g> </g>
 </text> 
</g>
 </g>
 </g>
 <path d=" M 227.62195 5.69046 L 227.62195 -5.69046  " fill="none"/>
 <g fill="#fff">
 <g fill="#fff">
 <path d=" M 219.08614 11.78099 h 17.07162 v 14.22635 h -17.07162 Z  " stroke="none"/>
 </g>
 <g transform="translate(227.62195,18.89417)">
 <g fill="#000">
 <text style="stroke:none" transform="scale(1,-1) translate(0.0,0)" text-anchor="middle"  font-size="10"> 
<g fill="#000">
 <g stroke="none"> </g> </g>
 </text> 
</g>
 </g>
 </g>
 <g fill="#fff">
 <g fill="#fff">
 <path d=" M 219.08614 -26.00734 h 17.07162 v 14.22635 h -17.07162 Z  " stroke="none"/>
 </g>
 <g transform="translate(225.12195,-22.11638)">
 <g fill="#000">
 <text style="stroke:none" transform="scale(1,-1) translate(2.5,0)" text-anchor="middle"  font-size="10"> 
<g fill="#000">
 <g stroke="none"> 8 </g> </g>
 </text> 
</g>
 </g>
 </g>
 <path d=" M 256.07469 5.69046 L 256.07469 -5.69046  " fill="none"/>
 <g fill="#fff">
 <g fill="#fff">
 <path d=" M 247.53888 11.78099 h 17.07162 v 14.22635 h -17.07162 Z  " stroke="none"/>
 </g>
 <g transform="translate(256.07469,18.89417)">
 <g fill="#000">
 <text style="stroke:none" transform="scale(1,-1) translate(0.0,0)" text-anchor="middle"  font-size="10"> 
<g fill="#000">
 <g stroke="none"> </g> </g>
 </text> 
</g>
 </g>
 </g>
 <g fill="#fff">
 <g fill="#fff">
 <path d=" M 247.53888 -26.00734 h 17.07162 v 14.22635 h -17.07162 Z  " stroke="none"/>
 </g>
 <g transform="translate(253.57469,-22.11638)">
 <g fill="#000">
 <text style="stroke:none" transform="scale(1,-1) translate(2.5,0)" text-anchor="middle"  font-size="10"> 
<g fill="#000">
 <g stroke="none"> 9 </g> </g>
 </text> 
</g>
 </g>
 </g>
 <path d=" M 284.52744 5.69046 L 284.52744 -5.69046  " fill="none"/>
 <g fill="#fff">
 <g fill="#fff">
 <path d=" M 275.99162 11.78099 h 17.07162 v 14.22635 h -17.07162 Z  " stroke="none"/>
 </g>
 <g transform="translate(284.52744,18.89417)">
 <g fill="#000">
 <text style="stroke:none" transform="scale(1,-1) translate(0.0,0)" text-anchor="middle"  font-size="10"> 
<g fill="#000">
 <g stroke="none"> </g> </g>
 </text> 
</g>
 </g>
 </g>
 <g fill="#fff">
 <g fill="#fff">
 <path d=" M 275.99162 -26.00734 h 17.07162 v 14.22635 h -17.07162 Z  " stroke="none"/>
 </g>
 <g transform="translate(279.52742,-22.11638)">
 <g fill="#000">
 <text style="stroke:none" transform="scale(1,-1) translate(5.00002,0)" text-anchor="middle"  font-size="10"> 
<g fill="#000">
 <g stroke="none"> 10 </g> </g>
 </text> 
</g>
 </g>
 </g>
 <g fill="#fff">
 <g fill="#fff">
 <path d=" M 184.13332 9.61278 h 143.88275 v 18.56277 h -143.88275 Z  " stroke="none"/>
 </g>
 <g transform="translate(187.4663,16.39415)">
 <g fill="#000">
 <text style="stroke:none" transform="scale(1,-1) translate(68.6084,0)" text-anchor="middle"  font-size="10"> 
<g fill="#000">
 <g stroke="none"> 2<tspan font-family="cmmi" font-size="10">X</tspan>(1 <tspan font-family="cmsy" font-size="10">-</tspan><img 
src="latex-mqUE6g0x.png" alt="0.1122"  class="frac" align="middle">)<tspan baseline-shift="sub"><tspan font-family="cmsy" font-size="7">-</tspan><tspan font-family="cmr" font-size="7">4</tspan><tspan font-family="cmsy" font-size="7">&#x00D7;</tspan><tspan font-family="cmr" font-size="7">12</tspan></tspan>(1 + <img 
src="latex-mqUE6g1x.png" alt="0.120"  class="frac" align="middle">)<tspan baseline-shift="sub"><tspan font-family="cmr" font-size="7">5</tspan><tspan font-family="cmsy" font-size="7">&#x00D7;</tspan><tspan font-family="cmr" font-size="7">2</tspan></tspan></g> </g>
 </text> 
</g>
 </g>
 </g>
 <path d=" M 10.76768 18.89417 L 109.13107 18.89417  " fill="none"/>
 <g transform="translate(109.13107,18.89417)">
 <path d=" M 4.6799 0.0 C 3.29324 0.26 1.03998 1.03998 -0.51999 1.94995 L -0.51999 -1.94995 C 1.03998 -1.03998 3.29324 -0.26 4.6799 0.0  " stroke="none"/>
  </g>
 <path d=" M 116.65623 18.89417 L 174.97237 18.89417  " fill="none"/>
 <g transform="translate(174.97237,18.89417)">
 <path d=" M 4.6799 0.0 C 3.29324 0.26 1.03998 1.03998 -0.51999 1.94995 L -0.51999 -1.94995 C 1.03998 -1.03998 3.29324 -0.26 4.6799 0.0  " stroke="none"/>
  </g>
 </g>
 </g>
 </g>
 
                                                                                                                              </g> 
</svg> 
