<?xml version="1.0" encoding="iso-8859-1" standalone="no"?> 
<?xml-stylesheet href="latex-Aujbeg.css" type="text/css"?> 
<svg xmlns="http://www.w3.org/2000/svg" xmlns:xlink="http://www.w3.org/1999/xlink" width="385.44759pt" height="349.52684pt" viewBox="-32.67712 -13.74454 385.44759 349.52684 "> 
<g transform="translate(0, 335.7823 ) scale(1,-1) translate(0,13.74454 )"> 
              <g stroke="#000" fill="#000">
 <g stroke-width="0.4">
 <g stroke-width="0.8">
 <path d=" M 0.0 0.0 L 319.38333 0.0  " fill="none"/>
 <g transform="translate(319.38333,0.0)">
 <g stroke-width="0.64">
 <g stroke-dasharray="none" stroke-dashoffset="0.0">
 <g stroke-linecap="round">
 <g stroke-linejoin="round">
 <path d=" M -1.55997 2.07996 C -1.42996 1.29997 0.0 0.12999 0.38998 0.0 C 0.0 -0.12999 -1.42996 -1.29997 -1.55997 -2.07996  " fill="none"/>
 </g>
 </g>
 </g>
 </g>
  </g>
 <g transform="translate(323.82631,-10.41156)">
 <g fill="#000">
 <text style="stroke:none" transform="scale(1,-1) translate(12.80559,0)" text-anchor="middle"  font-size="10"> 
<g fill="#000">
 <g stroke="none"> x axis</g> </g>
 </text> 
</g>
 </g>
 </g>
 <g stroke-width="0.8">
 <path d=" M 0.0 0.0 L 0.0 319.38333  " fill="none"/>
 <g transform="matrix(0.0,1.0,-1.0,0.0,0.0,319.38333)">
 <g stroke-width="0.64">
 <g stroke-dasharray="none" stroke-dashoffset="0.0">
 <g stroke-linecap="round">
 <g stroke-linejoin="round">
 <path d=" M -1.55997 2.07996 C -1.42996 1.29997 0.0 0.12999 0.38998 0.0 C 0.0 -0.12999 -1.42996 -1.29997 -1.55997 -2.07996  " fill="none"/>
 </g>
 </g>
 </g>
 </g>
  </g>
 <g transform="translate(-29.34415,325.77074)">
 <g fill="#000">
 <text style="stroke:none" transform="scale(1,-1) translate(12.80559,0)" text-anchor="middle"  font-size="10"> 
<g fill="#000">
 <g stroke="none"> y axis</g> </g>
 </text> 
</g>
 </g>
 </g>
 </g>
 </g>
 
                                                                                                                    </g> 
</svg> 
