<?xml version="1.0" encoding="UTF-8"?>
<!DOCTYPE svg PUBLIC "-//W3C//DTD SVG 1.1//EN" "http://www.w3.org/Graphics/SVG/1.1/DTD/svg11.dtd">
<svg version="1.2" width="44.71mm" height="68.59mm" viewBox="-474 -730 4471 6859" preserveAspectRatio="xMidYMid" fill-rule="evenodd" stroke-width="28.222" stroke-linejoin="round" xmlns="http://www.w3.org/2000/svg" xmlns:ooo="http://xml.openoffice.org/svg/export" xmlns:xlink="http://www.w3.org/1999/xlink" xmlns:presentation="http://sun.com/xmlns/staroffice/presentation" xmlns:smil="http://www.w3.org/2001/SMIL20/" xmlns:anim="urn:oasis:names:tc:opendocument:xmlns:animation:1.0" xml:space="preserve">
 <defs class="EmbeddedBulletChars">
  <g id="bullet-char-template-57356" transform="scale(0.00048828125,-0.00048828125)">
   <path d="M 580,1141 L 1163,571 580,0 -4,571 580,1141 Z"/>
  </g>
  <g id="bullet-char-template-57354" transform="scale(0.00048828125,-0.00048828125)">
   <path d="M 8,1128 L 1137,1128 1137,0 8,0 8,1128 Z"/>
  </g>
  <g id="bullet-char-template-10146" transform="scale(0.00048828125,-0.00048828125)">
   <path d="M 174,0 L 602,739 174,1481 1456,739 174,0 Z M 1358,739 L 309,1346 659,739 1358,739 Z"/>
  </g>
  <g id="bullet-char-template-10132" transform="scale(0.00048828125,-0.00048828125)">
   <path d="M 2015,739 L 1276,0 717,0 1260,543 174,543 174,936 1260,936 717,1481 1274,1481 2015,739 Z"/>
  </g>
  <g id="bullet-char-template-10007" transform="scale(0.00048828125,-0.00048828125)">
   <path d="M 0,-2 C -7,14 -16,27 -25,37 L 356,567 C 262,823 215,952 215,954 215,979 228,992 255,992 264,992 276,990 289,987 310,991 331,999 354,1012 L 381,999 492,748 772,1049 836,1024 860,1049 C 881,1039 901,1025 922,1006 886,937 835,863 770,784 769,783 710,716 594,584 L 774,223 C 774,196 753,168 711,139 L 727,119 C 717,90 699,76 672,76 641,76 570,178 457,381 L 164,-76 C 142,-110 111,-127 72,-127 30,-127 9,-110 8,-76 1,-67 -2,-52 -2,-32 -2,-23 -1,-13 0,-2 Z"/>
  </g>
  <g id="bullet-char-template-10004" transform="scale(0.00048828125,-0.00048828125)">
   <path d="M 285,-33 C 182,-33 111,30 74,156 52,228 41,333 41,471 41,549 55,616 82,672 116,743 169,778 240,778 293,778 328,747 346,684 L 369,508 C 377,444 397,411 428,410 L 1163,1116 C 1174,1127 1196,1133 1229,1133 1271,1133 1292,1118 1292,1087 L 1292,965 C 1292,929 1282,901 1262,881 L 442,47 C 390,-6 338,-33 285,-33 Z"/>
  </g>
  <g id="bullet-char-template-9679" transform="scale(0.00048828125,-0.00048828125)">
   <path d="M 813,0 C 632,0 489,54 383,161 276,268 223,411 223,592 223,773 276,916 383,1023 489,1130 632,1184 813,1184 992,1184 1136,1130 1245,1023 1353,916 1407,772 1407,592 1407,412 1353,268 1245,161 1136,54 992,0 813,0 Z"/>
  </g>
  <g id="bullet-char-template-8226" transform="scale(0.00048828125,-0.00048828125)">
   <path d="M 346,457 C 273,457 209,483 155,535 101,586 74,649 74,723 74,796 101,859 155,911 209,963 273,989 346,989 419,989 480,963 531,910 582,859 608,796 608,723 608,648 583,586 532,535 482,483 420,457 346,457 Z"/>
  </g>
  <g id="bullet-char-template-8211" transform="scale(0.00048828125,-0.00048828125)">
   <path d="M -4,459 L 1135,459 1135,606 -4,606 -4,459 Z"/>
  </g>
  <g id="bullet-char-template-61548" transform="scale(0.00048828125,-0.00048828125)">
   <path d="M 173,740 C 173,903 231,1043 346,1159 462,1274 601,1332 765,1332 928,1332 1067,1274 1183,1159 1299,1043 1357,903 1357,740 1357,577 1299,437 1183,322 1067,206 928,148 765,148 601,148 462,206 346,322 231,437 173,577 173,740 Z"/>
  </g>
 </defs>
 <g class="Page">
  <g class="Graphic">
   <g id="id3">
    <rect class="BoundingBox" stroke="none" fill="none" x="-474" y="-730" width="4471" height="6859"/>
    <path fill="rgb(128,128,255)" stroke="none" d="M -117,692 L -117,-650 C -117,-679 -95,-701 -66,-701 L 1280,-701 C 1308,-701 1331,-679 1331,-650 L 1331,692 C 1331,719 1308,742 1280,742 L -66,742 C -95,742 -117,719 -117,692 L -117,692 Z"/>
    <path fill="none" stroke="rgb(0,0,0)" stroke-width="20" stroke-linejoin="miter" d="M -117,692 L -117,-650 C -117,-679 -95,-701 -66,-701 L 1280,-701 C 1308,-701 1331,-679 1331,-650 L 1331,692 C 1331,719 1308,742 1280,742 L -66,742 C -95,742 -117,719 -117,692 Z"/>
    <path fill="rgb(0,0,0)" stroke="none" d="M 177,524 C 177,483 144,448 102,448 58,448 24,483 24,524 24,568 58,601 102,601 144,601 177,568 177,524 L 177,524 Z"/>
    <path fill="rgb(0,0,0)" stroke="none" d="M 1189,-483 C 1189,-526 1156,-561 1113,-561 1071,-561 1036,-526 1036,-483 1036,-441 1071,-408 1113,-408 1156,-408 1189,-441 1189,-483 L 1189,-483 Z"/>
    <path fill="rgb(0,0,0)" stroke="none" d="M 177,-483 C 177,-526 144,-561 102,-561 58,-561 24,-526 24,-483 24,-441 58,-408 102,-408 144,-408 177,-441 177,-483 L 177,-483 Z"/>
    <path fill="rgb(0,0,0)" stroke="none" d="M 1189,524 C 1189,483 1156,448 1113,448 1071,448 1036,483 1036,524 1036,568 1071,601 1113,601 1156,601 1189,568 1189,524 L 1189,524 Z"/>
    <path fill="rgb(0,0,0)" stroke="none" d="M 1189,21 C 1189,-20 1156,-56 1113,-56 1071,-56 1036,-20 1036,21 1036,63 1071,96 1113,96 1156,96 1189,63 1189,21 L 1189,21 Z"/>
    <path fill="rgb(0,0,0)" stroke="none" d="M 177,21 C 177,-20 144,-56 102,-56 58,-56 24,-20 24,21 24,63 58,96 102,96 144,96 177,63 177,21 L 177,21 Z"/>
    <path fill="rgb(128,128,255)" stroke="none" d="M 2518,692 L 2518,-650 C 2518,-679 2541,-701 2569,-701 L 3915,-701 C 3942,-701 3965,-679 3965,-650 L 3965,692 C 3965,719 3942,742 3915,742 L 2569,742 C 2541,742 2518,719 2518,692 L 2518,692 Z"/>
    <path fill="none" stroke="rgb(0,0,0)" stroke-width="20" stroke-linejoin="miter" d="M 2518,692 L 2518,-650 C 2518,-679 2541,-701 2569,-701 L 3915,-701 C 3942,-701 3965,-679 3965,-650 L 3965,692 C 3965,719 3942,742 3915,742 L 2569,742 C 2541,742 2518,719 2518,692 Z"/>
    <path fill="rgb(0,0,0)" stroke="none" d="M 3319,21 C 3319,-20 3284,-56 3241,-56 3199,-56 3164,-20 3164,21 3164,63 3199,96 3241,96 3284,96 3319,63 3319,21 L 3319,21 Z"/>
    <path fill="rgb(128,128,255)" stroke="none" d="M -117,3369 L -117,2027 C -117,1999 -95,1976 -66,1976 L 1280,1976 C 1308,1976 1331,1999 1331,2027 L 1331,3369 C 1331,3396 1308,3419 1280,3419 L -66,3419 C -95,3419 -117,3396 -117,3369 L -117,3369 Z"/>
    <path fill="none" stroke="rgb(0,0,0)" stroke-width="20" stroke-linejoin="miter" d="M -117,3369 L -117,2027 C -117,1999 -95,1976 -66,1976 L 1280,1976 C 1308,1976 1331,1999 1331,2027 L 1331,3369 C 1331,3396 1308,3419 1280,3419 L -66,3419 C -95,3419 -117,3396 -117,3369 Z"/>
    <path fill="rgb(0,0,0)" stroke="none" d="M 683,2698 C 683,2655 650,2620 608,2620 566,2620 530,2655 530,2698 530,2740 566,2775 608,2775 650,2775 683,2740 683,2698 L 683,2698 Z"/>
    <path fill="rgb(0,0,0)" stroke="none" d="M 177,3203 C 177,3161 144,3126 102,3126 58,3126 24,3161 24,3203 24,3245 58,3279 102,3279 144,3279 177,3245 177,3203 L 177,3203 Z"/>
    <path fill="rgb(0,0,0)" stroke="none" d="M 1189,2192 C 1189,2150 1156,2116 1113,2116 1071,2116 1036,2150 1036,2192 1036,2236 1071,2270 1113,2270 1156,2270 1189,2236 1189,2192 L 1189,2192 Z"/>
    <path fill="rgb(0,0,0)" stroke="none" d="M 177,2192 C 177,2150 144,2116 102,2116 58,2116 24,2150 24,2192 24,2236 58,2270 102,2270 144,2270 177,2236 177,2192 L 177,2192 Z"/>
    <path fill="rgb(0,0,0)" stroke="none" d="M 1189,3203 C 1189,3161 1156,3126 1113,3126 1071,3126 1036,3161 1036,3203 1036,3245 1071,3279 1113,3279 1156,3279 1189,3245 1189,3203 L 1189,3203 Z"/>
    <path fill="rgb(128,128,255)" stroke="none" d="M 2518,3369 L 2518,2027 C 2518,1999 2541,1976 2569,1976 L 3915,1976 C 3942,1976 3965,1999 3965,2027 L 3965,3369 C 3965,3396 3942,3419 3915,3419 L 2569,3419 C 2541,3419 2518,3396 2518,3369 L 2518,3369 Z"/>
    <path fill="none" stroke="rgb(0,0,0)" stroke-width="20" stroke-linejoin="miter" d="M 2518,3369 L 2518,2027 C 2518,1999 2541,1976 2569,1976 L 3915,1976 C 3942,1976 3965,1999 3965,2027 L 3965,3369 C 3965,3396 3942,3419 3915,3419 L 2569,3419 C 2541,3419 2518,3396 2518,3369 Z"/>
    <path fill="rgb(0,0,0)" stroke="none" d="M 2813,3203 C 2813,3161 2778,3126 2736,3126 2694,3126 2658,3161 2658,3203 2658,3245 2694,3279 2736,3279 2778,3279 2813,3245 2813,3203 L 2813,3203 Z"/>
    <path fill="rgb(0,0,0)" stroke="none" d="M 3825,2192 C 3825,2150 3790,2116 3748,2116 3705,2116 3670,2150 3670,2192 3670,2236 3705,2270 3748,2270 3790,2270 3825,2236 3825,2192 L 3825,2192 Z"/>
    <path fill="rgb(128,128,255)" stroke="none" d="M -117,6047 L -117,4705 C -117,4676 -95,4654 -66,4654 L 1280,4654 C 1308,4654 1331,4676 1331,4705 L 1331,6047 C 1331,6074 1308,6097 1280,6097 L -66,6097 C -95,6097 -117,6074 -117,6047 L -117,6047 Z"/>
    <path fill="none" stroke="rgb(0,0,0)" stroke-width="20" stroke-linejoin="miter" d="M -117,6047 L -117,4705 C -117,4676 -95,4654 -66,4654 L 1280,4654 C 1308,4654 1331,4676 1331,4705 L 1331,6047 C 1331,6074 1308,6097 1280,6097 L -66,6097 C -95,6097 -117,6074 -117,6047 Z"/>
    <path fill="rgb(0,0,0)" stroke="none" d="M 177,5881 C 177,5838 144,5803 102,5803 58,5803 24,5838 24,5881 24,5923 58,5956 102,5956 144,5956 177,5923 177,5881 L 177,5881 Z"/>
    <path fill="rgb(0,0,0)" stroke="none" d="M 1189,4872 C 1189,4830 1156,4794 1113,4794 1071,4794 1036,4830 1036,4872 1036,4914 1071,4947 1113,4947 1156,4947 1189,4914 1189,4872 L 1189,4872 Z"/>
    <path fill="rgb(0,0,0)" stroke="none" d="M 177,4872 C 177,4830 144,4794 102,4794 58,4794 24,4830 24,4872 24,4914 58,4947 102,4947 144,4947 177,4914 177,4872 L 177,4872 Z"/>
    <path fill="rgb(0,0,0)" stroke="none" d="M 1189,5881 C 1189,5838 1156,5803 1113,5803 1071,5803 1036,5838 1036,5881 1036,5923 1071,5956 1113,5956 1156,5956 1189,5923 1189,5881 L 1189,5881 Z"/>
    <path fill="rgb(128,128,255)" stroke="none" d="M 2518,6047 L 2518,4705 C 2518,4676 2541,4654 2569,4654 L 3915,4654 C 3942,4654 3965,4676 3965,4705 L 3965,6047 C 3965,6074 3942,6097 3915,6097 L 2569,6097 C 2541,6097 2518,6074 2518,6047 L 2518,6047 Z"/>
    <path fill="none" stroke="rgb(0,0,0)" stroke-width="20" stroke-linejoin="miter" d="M 2518,6047 L 2518,4705 C 2518,4676 2541,4654 2569,4654 L 3915,4654 C 3942,4654 3965,4676 3965,4705 L 3965,6047 C 3965,6074 3942,6097 3915,6097 L 2569,6097 C 2541,6097 2518,6074 2518,6047 Z"/>
    <path fill="rgb(0,0,0)" stroke="none" d="M 3319,5375 C 3319,5333 3284,5299 3241,5299 3199,5299 3164,5333 3164,5375 3164,5418 3199,5452 3241,5452 3284,5452 3319,5418 3319,5375 L 3319,5375 Z"/>
    <path fill="rgb(0,0,0)" stroke="none" d="M 2813,5881 C 2813,5838 2778,5803 2736,5803 2694,5803 2658,5838 2658,5881 2658,5923 2694,5956 2736,5956 2778,5956 2813,5923 2813,5881 L 2813,5881 Z"/>
    <path fill="rgb(0,0,0)" stroke="none" d="M 3825,4872 C 3825,4830 3790,4794 3748,4794 3705,4794 3670,4830 3670,4872 3670,4914 3705,4947 3748,4947 3790,4947 3825,4914 3825,4872 L 3825,4872 Z"/>
    <path fill="none" stroke="rgb(128,128,128)" stroke-width="51" stroke-linejoin="round" d="M 3244,745 L 3244,1862"/>
    <path fill="rgb(128,128,128)" stroke="none" d="M 3354,1848 L 3244,1990 3134,1848 3354,1848 3354,1848 Z"/>
    <path fill="none" stroke="rgb(128,128,128)" stroke-width="51" stroke-linejoin="round" d="M 2501,2693 L 1473,2687"/>
    <path fill="rgb(128,128,128)" stroke="none" d="M 1486,2796 L 1344,2687 1487,2577 1486,2796 1486,2796 Z"/>
    <path fill="none" stroke="rgb(128,128,128)" stroke-width="51" stroke-linejoin="round" d="M 1312,3384 L 2434,4551"/>
    <path fill="rgb(128,128,128)" stroke="none" d="M 2503,4464 L 2524,4643 2344,4616 2503,4464 2503,4464 Z"/>
    <path fill="none" stroke="rgb(128,128,128)" stroke-width="51" stroke-linejoin="miter" d="M -153,5467 C -160,5398 -176,5331 -199,5267 -221,5207 -293,4930 -312,4853 -331,4776 -417,4079 -427,4012 -436,3947 -404,896 -396,834 -388,777 -378,511 -354,439 -335,382 -307,327 -278,277 -248,226 -234,206 -212,170"/>
    <path fill="rgb(128,128,128)" stroke="none" d="M -316,128 L -144,72 -134,251 -316,128 -316,128 Z"/>
    <path fill="none" stroke="rgb(128,128,128)" stroke-width="51" stroke-linejoin="round" d="M 2514,5365 L 1486,5359"/>
    <path fill="rgb(128,128,128)" stroke="none" d="M 1499,5469 L 1357,5359 1500,5250 1499,5469 1499,5469 Z"/>
    <path fill="none" stroke="rgb(128,128,128)" stroke-width="51" stroke-linejoin="round" d="M 1357,18 L 2385,13"/>
    <path fill="rgb(128,128,128)" stroke="none" d="M 2370,-97 L 2514,13 2372,122 2370,-97 2370,-97 Z"/>
   </g>
  </g>
 </g>
</svg>