<?xml version="1.0" encoding="UTF-8"?>
<!DOCTYPE svg PUBLIC "-//W3C//DTD SVG 1.1//EN" "http://www.w3.org/Graphics/SVG/1.1/DTD/svg11.dtd">
<svg version="1.2" width="30.65mm" height="47.31mm" viewBox="204 431 3065 4731" preserveAspectRatio="xMidYMid" fill-rule="evenodd" stroke-width="28.222" stroke-linejoin="round" xmlns="http://www.w3.org/2000/svg" xmlns:ooo="http://xml.openoffice.org/svg/export" xmlns:xlink="http://www.w3.org/1999/xlink" xmlns:presentation="http://sun.com/xmlns/staroffice/presentation" xmlns:smil="http://www.w3.org/2001/SMIL20/" xmlns:anim="urn:oasis:names:tc:opendocument:xmlns:animation:1.0" xml:space="preserve">
 <defs class="EmbeddedBulletChars">
  <g id="bullet-char-template-57356" transform="scale(0.00048828125,-0.00048828125)">
   <path d="M 580,1141 L 1163,571 580,0 -4,571 580,1141 Z"/>
  </g>
  <g id="bullet-char-template-57354" transform="scale(0.00048828125,-0.00048828125)">
   <path d="M 8,1128 L 1137,1128 1137,0 8,0 8,1128 Z"/>
  </g>
  <g id="bullet-char-template-10146" transform="scale(0.00048828125,-0.00048828125)">
   <path d="M 174,0 L 602,739 174,1481 1456,739 174,0 Z M 1358,739 L 309,1346 659,739 1358,739 Z"/>
  </g>
  <g id="bullet-char-template-10132" transform="scale(0.00048828125,-0.00048828125)">
   <path d="M 2015,739 L 1276,0 717,0 1260,543 174,543 174,936 1260,936 717,1481 1274,1481 2015,739 Z"/>
  </g>
  <g id="bullet-char-template-10007" transform="scale(0.00048828125,-0.00048828125)">
   <path d="M 0,-2 C -7,14 -16,27 -25,37 L 356,567 C 262,823 215,952 215,954 215,979 228,992 255,992 264,992 276,990 289,987 310,991 331,999 354,1012 L 381,999 492,748 772,1049 836,1024 860,1049 C 881,1039 901,1025 922,1006 886,937 835,863 770,784 769,783 710,716 594,584 L 774,223 C 774,196 753,168 711,139 L 727,119 C 717,90 699,76 672,76 641,76 570,178 457,381 L 164,-76 C 142,-110 111,-127 72,-127 30,-127 9,-110 8,-76 1,-67 -2,-52 -2,-32 -2,-23 -1,-13 0,-2 Z"/>
  </g>
  <g id="bullet-char-template-10004" transform="scale(0.00048828125,-0.00048828125)">
   <path d="M 285,-33 C 182,-33 111,30 74,156 52,228 41,333 41,471 41,549 55,616 82,672 116,743 169,778 240,778 293,778 328,747 346,684 L 369,508 C 377,444 397,411 428,410 L 1163,1116 C 1174,1127 1196,1133 1229,1133 1271,1133 1292,1118 1292,1087 L 1292,965 C 1292,929 1282,901 1262,881 L 442,47 C 390,-6 338,-33 285,-33 Z"/>
  </g>
  <g id="bullet-char-template-9679" transform="scale(0.00048828125,-0.00048828125)">
   <path d="M 813,0 C 632,0 489,54 383,161 276,268 223,411 223,592 223,773 276,916 383,1023 489,1130 632,1184 813,1184 992,1184 1136,1130 1245,1023 1353,916 1407,772 1407,592 1407,412 1353,268 1245,161 1136,54 992,0 813,0 Z"/>
  </g>
  <g id="bullet-char-template-8226" transform="scale(0.00048828125,-0.00048828125)">
   <path d="M 346,457 C 273,457 209,483 155,535 101,586 74,649 74,723 74,796 101,859 155,911 209,963 273,989 346,989 419,989 480,963 531,910 582,859 608,796 608,723 608,648 583,586 532,535 482,483 420,457 346,457 Z"/>
  </g>
  <g id="bullet-char-template-8211" transform="scale(0.00048828125,-0.00048828125)">
   <path d="M -4,459 L 1135,459 1135,606 -4,606 -4,459 Z"/>
  </g>
  <g id="bullet-char-template-61548" transform="scale(0.00048828125,-0.00048828125)">
   <path d="M 173,740 C 173,903 231,1043 346,1159 462,1274 601,1332 765,1332 928,1332 1067,1274 1183,1159 1299,1043 1357,903 1357,740 1357,577 1299,437 1183,322 1067,206 928,148 765,148 601,148 462,206 346,322 231,437 173,577 173,740 Z"/>
  </g>
 </defs>
 <g class="Page">
  <g class="com.sun.star.drawing.ClosedBezierShape">
   <g id="id3">
    <rect class="BoundingBox" stroke="none" fill="none" x="431" y="431" width="1016" height="1016"/>
    <path fill="rgb(128,128,255)" stroke="none" d="M 438,1404 L 438,473 C 438,453 453,438 473,438 L 1404,438 C 1423,438 1439,453 1439,473 L 1439,1404 C 1439,1423 1423,1439 1404,1439 L 473,1439 C 453,1439 438,1423 438,1404 Z"/>
    <path fill="none" stroke="rgb(0,0,0)" stroke-width="14" stroke-linejoin="miter" d="M 438,1404 L 438,473 C 438,453 453,438 473,438 L 1404,438 C 1423,438 1439,453 1439,473 L 1439,1404 C 1439,1423 1423,1439 1404,1439 L 473,1439 C 453,1439 438,1423 438,1404 Z"/>
   </g>
  </g>
  <g class="com.sun.star.drawing.ClosedBezierShape">
   <g id="id4">
    <rect class="BoundingBox" stroke="none" fill="none" x="535" y="1235" width="107" height="107"/>
    <path fill="rgb(0,0,0)" stroke="none" d="M 641,1288 C 641,1259 618,1235 589,1235 559,1235 535,1259 535,1288 535,1318 559,1341 589,1341 618,1341 641,1318 641,1288 Z"/>
   </g>
  </g>
  <g class="com.sun.star.drawing.ClosedBezierShape">
   <g id="id5">
    <rect class="BoundingBox" stroke="none" fill="none" x="1235" y="535" width="107" height="107"/>
    <path fill="rgb(0,0,0)" stroke="none" d="M 1341,589 C 1341,559 1318,535 1288,535 1259,535 1235,559 1235,589 1235,618 1259,641 1288,641 1318,641 1341,618 1341,589 Z"/>
   </g>
  </g>
  <g class="com.sun.star.drawing.ClosedBezierShape">
   <g id="id6">
    <rect class="BoundingBox" stroke="none" fill="none" x="535" y="535" width="107" height="107"/>
    <path fill="rgb(0,0,0)" stroke="none" d="M 641,589 C 641,559 618,535 589,535 559,535 535,559 535,589 535,618 559,641 589,641 618,641 641,618 641,589 Z"/>
   </g>
  </g>
  <g class="com.sun.star.drawing.ClosedBezierShape">
   <g id="id7">
    <rect class="BoundingBox" stroke="none" fill="none" x="1235" y="1235" width="107" height="107"/>
    <path fill="rgb(0,0,0)" stroke="none" d="M 1341,1288 C 1341,1259 1318,1235 1288,1235 1259,1235 1235,1259 1235,1288 1235,1318 1259,1341 1288,1341 1318,1341 1341,1318 1341,1288 Z"/>
   </g>
  </g>
  <g class="com.sun.star.drawing.ClosedBezierShape">
   <g id="id8">
    <rect class="BoundingBox" stroke="none" fill="none" x="1235" y="885" width="107" height="107"/>
    <path fill="rgb(0,0,0)" stroke="none" d="M 1341,939 C 1341,910 1318,885 1288,885 1259,885 1235,910 1235,939 1235,968 1259,991 1288,991 1318,991 1341,968 1341,939 Z"/>
   </g>
  </g>
  <g class="com.sun.star.drawing.ClosedBezierShape">
   <g id="id9">
    <rect class="BoundingBox" stroke="none" fill="none" x="535" y="885" width="107" height="107"/>
    <path fill="rgb(0,0,0)" stroke="none" d="M 641,939 C 641,910 618,885 589,885 559,885 535,910 535,939 535,968 559,991 589,991 618,991 641,968 641,939 Z"/>
   </g>
  </g>
  <g class="com.sun.star.drawing.ClosedBezierShape">
   <g id="id10">
    <rect class="BoundingBox" stroke="none" fill="none" x="2253" y="431" width="1016" height="1016"/>
    <path fill="rgb(128,128,255)" stroke="none" d="M 2260,1404 L 2260,473 C 2260,453 2276,438 2295,438 L 3226,438 C 3245,438 3261,453 3261,473 L 3261,1404 C 3261,1423 3245,1439 3226,1439 L 2295,1439 C 2276,1439 2260,1423 2260,1404 Z"/>
    <path fill="none" stroke="rgb(0,0,0)" stroke-width="14" stroke-linejoin="miter" d="M 2260,1404 L 2260,473 C 2260,453 2276,438 2295,438 L 3226,438 C 3245,438 3261,453 3261,473 L 3261,1404 C 3261,1423 3245,1439 3226,1439 L 2295,1439 C 2276,1439 2260,1423 2260,1404 Z"/>
   </g>
  </g>
  <g class="com.sun.star.drawing.ClosedBezierShape">
   <g id="id11">
    <rect class="BoundingBox" stroke="none" fill="none" x="2706" y="885" width="109" height="107"/>
    <path fill="rgb(0,0,0)" stroke="none" d="M 2814,939 C 2814,910 2790,885 2760,885 2731,885 2707,910 2707,939 2707,968 2731,991 2760,991 2790,991 2814,968 2814,939 Z"/>
   </g>
  </g>
  <g class="com.sun.star.drawing.ClosedBezierShape">
   <g id="id12">
    <rect class="BoundingBox" stroke="none" fill="none" x="431" y="2288" width="1016" height="1016"/>
    <path fill="rgb(128,128,255)" stroke="none" d="M 438,3261 L 438,2330 C 438,2311 453,2295 473,2295 L 1404,2295 C 1423,2295 1439,2311 1439,2330 L 1439,3261 C 1439,3280 1423,3296 1404,3296 L 473,3296 C 453,3296 438,3280 438,3261 Z"/>
    <path fill="none" stroke="rgb(0,0,0)" stroke-width="14" stroke-linejoin="miter" d="M 438,3261 L 438,2330 C 438,2311 453,2295 473,2295 L 1404,2295 C 1423,2295 1439,2311 1439,2330 L 1439,3261 C 1439,3280 1423,3296 1404,3296 L 473,3296 C 453,3296 438,3280 438,3261 Z"/>
   </g>
  </g>
  <g class="com.sun.star.drawing.ClosedBezierShape">
   <g id="id13">
    <rect class="BoundingBox" stroke="none" fill="none" x="885" y="2742" width="107" height="108"/>
    <path fill="rgb(0,0,0)" stroke="none" d="M 991,2796 C 991,2766 968,2742 939,2742 910,2742 885,2766 885,2796 885,2825 910,2849 939,2849 968,2849 991,2825 991,2796 Z"/>
   </g>
  </g>
  <g class="com.sun.star.drawing.ClosedBezierShape">
   <g id="id14">
    <rect class="BoundingBox" stroke="none" fill="none" x="535" y="3092" width="107" height="108"/>
    <path fill="rgb(0,0,0)" stroke="none" d="M 641,3146 C 641,3117 618,3093 589,3093 559,3093 535,3117 535,3146 535,3175 559,3199 589,3199 618,3199 641,3175 641,3146 Z"/>
   </g>
  </g>
  <g class="com.sun.star.drawing.ClosedBezierShape">
   <g id="id15">
    <rect class="BoundingBox" stroke="none" fill="none" x="1235" y="2391" width="107" height="109"/>
    <path fill="rgb(0,0,0)" stroke="none" d="M 1341,2445 C 1341,2416 1318,2392 1288,2392 1259,2392 1235,2416 1235,2445 1235,2475 1259,2499 1288,2499 1318,2499 1341,2475 1341,2445 Z"/>
   </g>
  </g>
  <g class="com.sun.star.drawing.ClosedBezierShape">
   <g id="id16">
    <rect class="BoundingBox" stroke="none" fill="none" x="535" y="2391" width="107" height="109"/>
    <path fill="rgb(0,0,0)" stroke="none" d="M 641,2445 C 641,2416 618,2392 589,2392 559,2392 535,2416 535,2445 535,2475 559,2499 589,2499 618,2499 641,2475 641,2445 Z"/>
   </g>
  </g>
  <g class="com.sun.star.drawing.ClosedBezierShape">
   <g id="id17">
    <rect class="BoundingBox" stroke="none" fill="none" x="1235" y="3092" width="107" height="108"/>
    <path fill="rgb(0,0,0)" stroke="none" d="M 1341,3146 C 1341,3117 1318,3093 1288,3093 1259,3093 1235,3117 1235,3146 1235,3175 1259,3199 1288,3199 1318,3199 1341,3175 1341,3146 Z"/>
   </g>
  </g>
  <g class="com.sun.star.drawing.ClosedBezierShape">
   <g id="id18">
    <rect class="BoundingBox" stroke="none" fill="none" x="2253" y="2288" width="1016" height="1016"/>
    <path fill="rgb(128,128,255)" stroke="none" d="M 2260,3261 L 2260,2330 C 2260,2311 2276,2295 2295,2295 L 3226,2295 C 3245,2295 3261,2311 3261,2330 L 3261,3261 C 3261,3280 3245,3296 3226,3296 L 2295,3296 C 2276,3296 2260,3280 2260,3261 Z"/>
    <path fill="none" stroke="rgb(0,0,0)" stroke-width="14" stroke-linejoin="miter" d="M 2260,3261 L 2260,2330 C 2260,2311 2276,2295 2295,2295 L 3226,2295 C 3245,2295 3261,2311 3261,2330 L 3261,3261 C 3261,3280 3245,3296 3226,3296 L 2295,3296 C 2276,3296 2260,3280 2260,3261 Z"/>
   </g>
  </g>
  <g class="com.sun.star.drawing.ClosedBezierShape">
   <g id="id19">
    <rect class="BoundingBox" stroke="none" fill="none" x="2357" y="3092" width="108" height="108"/>
    <path fill="rgb(0,0,0)" stroke="none" d="M 2464,3146 C 2464,3117 2440,3093 2411,3093 2382,3093 2357,3117 2357,3146 2357,3175 2382,3199 2411,3199 2440,3199 2464,3175 2464,3146 Z"/>
   </g>
  </g>
  <g class="com.sun.star.drawing.ClosedBezierShape">
   <g id="id20">
    <rect class="BoundingBox" stroke="none" fill="none" x="3056" y="2391" width="109" height="109"/>
    <path fill="rgb(0,0,0)" stroke="none" d="M 3164,2445 C 3164,2416 3140,2392 3111,2392 3081,2392 3057,2416 3057,2445 3057,2475 3081,2499 3111,2499 3140,2499 3164,2475 3164,2445 Z"/>
   </g>
  </g>
  <g class="com.sun.star.drawing.ClosedBezierShape">
   <g id="id21">
    <rect class="BoundingBox" stroke="none" fill="none" x="431" y="4146" width="1016" height="1016"/>
    <path fill="rgb(128,128,255)" stroke="none" d="M 438,5119 L 438,4188 C 438,4168 453,4153 473,4153 L 1404,4153 C 1423,4153 1439,4168 1439,4188 L 1439,5119 C 1439,5138 1423,5154 1404,5154 L 473,5154 C 453,5154 438,5138 438,5119 Z"/>
    <path fill="none" stroke="rgb(0,0,0)" stroke-width="14" stroke-linejoin="miter" d="M 438,5119 L 438,4188 C 438,4168 453,4153 473,4153 L 1404,4153 C 1423,4153 1439,4168 1439,4188 L 1439,5119 C 1439,5138 1423,5154 1404,5154 L 473,5154 C 453,5154 438,5138 438,5119 Z"/>
   </g>
  </g>
  <g class="com.sun.star.drawing.ClosedBezierShape">
   <g id="id22">
    <rect class="BoundingBox" stroke="none" fill="none" x="535" y="4950" width="107" height="107"/>
    <path fill="rgb(0,0,0)" stroke="none" d="M 641,5004 C 641,4974 618,4950 589,4950 559,4950 535,4974 535,5004 535,5033 559,5056 589,5056 618,5056 641,5033 641,5004 Z"/>
   </g>
  </g>
  <g class="com.sun.star.drawing.ClosedBezierShape">
   <g id="id23">
    <rect class="BoundingBox" stroke="none" fill="none" x="1235" y="4250" width="107" height="107"/>
    <path fill="rgb(0,0,0)" stroke="none" d="M 1341,4304 C 1341,4275 1318,4250 1288,4250 1259,4250 1235,4275 1235,4304 1235,4333 1259,4356 1288,4356 1318,4356 1341,4333 1341,4304 Z"/>
   </g>
  </g>
  <g class="com.sun.star.drawing.ClosedBezierShape">
   <g id="id24">
    <rect class="BoundingBox" stroke="none" fill="none" x="535" y="4250" width="107" height="107"/>
    <path fill="rgb(0,0,0)" stroke="none" d="M 641,4304 C 641,4275 618,4250 589,4250 559,4250 535,4275 535,4304 535,4333 559,4356 589,4356 618,4356 641,4333 641,4304 Z"/>
   </g>
  </g>
  <g class="com.sun.star.drawing.ClosedBezierShape">
   <g id="id25">
    <rect class="BoundingBox" stroke="none" fill="none" x="1235" y="4950" width="107" height="107"/>
    <path fill="rgb(0,0,0)" stroke="none" d="M 1341,5004 C 1341,4974 1318,4950 1288,4950 1259,4950 1235,4974 1235,5004 1235,5033 1259,5056 1288,5056 1318,5056 1341,5033 1341,5004 Z"/>
   </g>
  </g>
  <g class="com.sun.star.drawing.ClosedBezierShape">
   <g id="id26">
    <rect class="BoundingBox" stroke="none" fill="none" x="2253" y="4146" width="1016" height="1016"/>
    <path fill="rgb(128,128,255)" stroke="none" d="M 2260,5119 L 2260,4188 C 2260,4168 2276,4153 2295,4153 L 3226,4153 C 3245,4153 3261,4168 3261,4188 L 3261,5119 C 3261,5138 3245,5154 3226,5154 L 2295,5154 C 2276,5154 2260,5138 2260,5119 Z"/>
    <path fill="none" stroke="rgb(0,0,0)" stroke-width="14" stroke-linejoin="miter" d="M 2260,5119 L 2260,4188 C 2260,4168 2276,4153 2295,4153 L 3226,4153 C 3245,4153 3261,4168 3261,4188 L 3261,5119 C 3261,5138 3245,5154 3226,5154 L 2295,5154 C 2276,5154 2260,5138 2260,5119 Z"/>
   </g>
  </g>
  <g class="com.sun.star.drawing.ClosedBezierShape">
   <g id="id27">
    <rect class="BoundingBox" stroke="none" fill="none" x="2706" y="4600" width="109" height="107"/>
    <path fill="rgb(0,0,0)" stroke="none" d="M 2814,4653 C 2814,4624 2790,4600 2760,4600 2731,4600 2707,4624 2707,4653 2707,4683 2731,4706 2760,4706 2790,4706 2814,4683 2814,4653 Z"/>
   </g>
  </g>
  <g class="com.sun.star.drawing.ClosedBezierShape">
   <g id="id28">
    <rect class="BoundingBox" stroke="none" fill="none" x="2357" y="4950" width="108" height="107"/>
    <path fill="rgb(0,0,0)" stroke="none" d="M 2464,5004 C 2464,4974 2440,4950 2411,4950 2382,4950 2357,4974 2357,5004 2357,5033 2382,5056 2411,5056 2440,5056 2464,5033 2464,5004 Z"/>
   </g>
  </g>
  <g class="com.sun.star.drawing.ClosedBezierShape">
   <g id="id29">
    <rect class="BoundingBox" stroke="none" fill="none" x="3056" y="4250" width="109" height="107"/>
    <path fill="rgb(0,0,0)" stroke="none" d="M 3164,4304 C 3164,4275 3140,4250 3111,4250 3081,4250 3057,4275 3057,4304 3057,4333 3081,4356 3111,4356 3140,4356 3164,4333 3164,4304 Z"/>
   </g>
  </g>
  <g class="com.sun.star.drawing.LineShape">
   <g id="id30">
    <rect class="BoundingBox" stroke="none" fill="none" x="2686" y="1423" width="153" height="883"/>
    <path fill="none" stroke="rgb(128,128,128)" stroke-width="35" stroke-linejoin="round" d="M 2762,1441 L 2762,2216"/>
    <path fill="rgb(128,128,128)" stroke="none" d="M 2838,2206 L 2762,2305 2686,2206 2838,2206 Z"/>
   </g>
  </g>
  <g class="com.sun.star.drawing.LineShape">
   <g id="id31">
    <rect class="BoundingBox" stroke="none" fill="none" x="1448" y="2712" width="819" height="154"/>
    <path fill="none" stroke="rgb(128,128,128)" stroke-width="35" stroke-linejoin="round" d="M 2248,2792 L 1537,2788"/>
    <path fill="rgb(128,128,128)" stroke="none" d="M 1546,2864 L 1448,2788 1547,2712 1546,2864 Z"/>
   </g>
  </g>
  <g class="com.sun.star.drawing.LineShape">
   <g id="id32">
    <rect class="BoundingBox" stroke="none" fill="none" x="1408" y="3254" width="857" height="893"/>
    <path fill="none" stroke="rgb(128,128,128)" stroke-width="35" stroke-linejoin="round" d="M 1426,3272 L 2202,4081"/>
    <path fill="rgb(128,128,128)" stroke="none" d="M 2250,4021 L 2264,4145 2140,4126 2250,4021 Z"/>
   </g>
  </g>
  <g class="com.sun.star.drawing.OpenFreeHandShape">
   <g id="id33">
    <rect class="BoundingBox" stroke="none" fill="none" x="204" y="974" width="228" height="3762"/>
    <path fill="none" stroke="rgb(128,128,128)" stroke-width="35" stroke-linejoin="miter" d="M 413,4717 C 408,4669 397,4622 381,4578 366,4536 316,4344 303,4291 290,4237 230,3754 223,3707 217,3662 239,1546 245,1503 250,1463 257,1279 274,1229 287,1189 306,1151 326,1116 347,1081 357,1067 372,1042"/>
    <path fill="rgb(128,128,128)" stroke="none" d="M 300,1013 L 419,974 426,1098 300,1013 Z"/>
   </g>
  </g>
  <g class="com.sun.star.drawing.LineShape">
   <g id="id34">
    <rect class="BoundingBox" stroke="none" fill="none" x="1457" y="4566" width="819" height="154"/>
    <path fill="none" stroke="rgb(128,128,128)" stroke-width="35" stroke-linejoin="round" d="M 2257,4646 L 1546,4642"/>
    <path fill="rgb(128,128,128)" stroke="none" d="M 1555,4718 L 1457,4642 1556,4566 1555,4718 Z"/>
   </g>
  </g>
  <g class="com.sun.star.drawing.LineShape">
   <g id="id35">
    <rect class="BoundingBox" stroke="none" fill="none" x="1439" y="857" width="819" height="154"/>
    <path fill="none" stroke="rgb(128,128,128)" stroke-width="35" stroke-linejoin="round" d="M 1457,937 L 2168,933"/>
    <path fill="rgb(128,128,128)" stroke="none" d="M 2158,857 L 2257,933 2159,1009 2158,857 Z"/>
   </g>
  </g>
 </g>
</svg>