<?xml version="1.0" encoding="utf-8"?>
<svg xmlns="http://www.w3.org/2000/svg" xmlns:xlink="http://www.w3.org/1999/xlink" width="600" height="400" viewBox="0 0 2400 1600">
<defs>
  <clipPath id="clip470">
    <rect x="0" y="0" width="2400" height="1600"/>
  </clipPath>
</defs>
<path clip-path="url(#clip470)" d="
M0 1600 L2400 1600 L2400 0 L0 0  Z
  " fill="#ffffff" fill-rule="evenodd" fill-opacity="1"/>
<defs>
  <clipPath id="clip471">
    <rect x="480" y="0" width="1681" height="1600"/>
  </clipPath>
</defs>
<path clip-path="url(#clip470)" d="
M156.598 1486.45 L2352.76 1486.45 L2352.76 47.2441 L156.598 47.2441  Z
  " fill="#ffffff" fill-rule="evenodd" fill-opacity="1"/>
<defs>
  <clipPath id="clip472">
    <rect x="156" y="47" width="2197" height="1440"/>
  </clipPath>
</defs>
<polyline clip-path="url(#clip472)" style="stroke:#000000; stroke-linecap:butt; stroke-linejoin:round; stroke-width:2; stroke-opacity:0.1; fill:none" points="
  214.834,1486.45 214.834,47.2441 
  "/>
<polyline clip-path="url(#clip472)" style="stroke:#000000; stroke-linecap:butt; stroke-linejoin:round; stroke-width:2; stroke-opacity:0.1; fill:none" points="
  735.427,1486.45 735.427,47.2441 
  "/>
<polyline clip-path="url(#clip472)" style="stroke:#000000; stroke-linecap:butt; stroke-linejoin:round; stroke-width:2; stroke-opacity:0.1; fill:none" points="
  1256.02,1486.45 1256.02,47.2441 
  "/>
<polyline clip-path="url(#clip472)" style="stroke:#000000; stroke-linecap:butt; stroke-linejoin:round; stroke-width:2; stroke-opacity:0.1; fill:none" points="
  1776.61,1486.45 1776.61,47.2441 
  "/>
<polyline clip-path="url(#clip472)" style="stroke:#000000; stroke-linecap:butt; stroke-linejoin:round; stroke-width:2; stroke-opacity:0.1; fill:none" points="
  2297.2,1486.45 2297.2,47.2441 
  "/>
<polyline clip-path="url(#clip470)" style="stroke:#000000; stroke-linecap:butt; stroke-linejoin:round; stroke-width:4; stroke-opacity:1; fill:none" points="
  156.598,1486.45 2352.76,1486.45 
  "/>
<polyline clip-path="url(#clip470)" style="stroke:#000000; stroke-linecap:butt; stroke-linejoin:round; stroke-width:4; stroke-opacity:1; fill:none" points="
  214.834,1486.45 214.834,1469.18 
  "/>
<polyline clip-path="url(#clip470)" style="stroke:#000000; stroke-linecap:butt; stroke-linejoin:round; stroke-width:4; stroke-opacity:1; fill:none" points="
  735.427,1486.45 735.427,1469.18 
  "/>
<polyline clip-path="url(#clip470)" style="stroke:#000000; stroke-linecap:butt; stroke-linejoin:round; stroke-width:4; stroke-opacity:1; fill:none" points="
  1256.02,1486.45 1256.02,1469.18 
  "/>
<polyline clip-path="url(#clip470)" style="stroke:#000000; stroke-linecap:butt; stroke-linejoin:round; stroke-width:4; stroke-opacity:1; fill:none" points="
  1776.61,1486.45 1776.61,1469.18 
  "/>
<polyline clip-path="url(#clip470)" style="stroke:#000000; stroke-linecap:butt; stroke-linejoin:round; stroke-width:4; stroke-opacity:1; fill:none" points="
  2297.2,1486.45 2297.2,1469.18 
  "/>
<path clip-path="url(#clip470)" d="M177.138 1515.64 Q173.526 1515.64 171.698 1519.2 Q169.892 1522.75 169.892 1529.87 Q169.892 1536.98 171.698 1540.55 Q173.526 1544.09 177.138 1544.09 Q180.772 1544.09 182.577 1540.55 Q184.406 1536.98 184.406 1529.87 Q184.406 1522.75 182.577 1519.2 Q180.772 1515.64 177.138 1515.64 M177.138 1511.93 Q182.948 1511.93 186.003 1516.54 Q189.082 1521.12 189.082 1529.87 Q189.082 1538.6 186.003 1543.21 Q182.948 1547.79 177.138 1547.79 Q171.327 1547.79 168.249 1543.21 Q165.193 1538.6 165.193 1529.87 Q165.193 1521.12 168.249 1516.54 Q171.327 1511.93 177.138 1511.93 Z" fill="#000000" fill-rule="evenodd" fill-opacity="1" /><path clip-path="url(#clip470)" d="M197.299 1541.24 L202.184 1541.24 L202.184 1547.12 L197.299 1547.12 L197.299 1541.24 Z" fill="#000000" fill-rule="evenodd" fill-opacity="1" /><path clip-path="url(#clip470)" d="M222.369 1515.64 Q218.758 1515.64 216.929 1519.2 Q215.123 1522.75 215.123 1529.87 Q215.123 1536.98 216.929 1540.55 Q218.758 1544.09 222.369 1544.09 Q226.003 1544.09 227.809 1540.55 Q229.637 1536.98 229.637 1529.87 Q229.637 1522.75 227.809 1519.2 Q226.003 1515.64 222.369 1515.64 M222.369 1511.93 Q228.179 1511.93 231.234 1516.54 Q234.313 1521.12 234.313 1529.87 Q234.313 1538.6 231.234 1543.21 Q228.179 1547.79 222.369 1547.79 Q216.559 1547.79 213.48 1543.21 Q210.424 1538.6 210.424 1529.87 Q210.424 1521.12 213.48 1516.54 Q216.559 1511.93 222.369 1511.93 Z" fill="#000000" fill-rule="evenodd" fill-opacity="1" /><path clip-path="url(#clip470)" d="M252.531 1515.64 Q248.92 1515.64 247.091 1519.2 Q245.285 1522.75 245.285 1529.87 Q245.285 1536.98 247.091 1540.55 Q248.92 1544.09 252.531 1544.09 Q256.165 1544.09 257.97 1540.55 Q259.799 1536.98 259.799 1529.87 Q259.799 1522.75 257.97 1519.2 Q256.165 1515.64 252.531 1515.64 M252.531 1511.93 Q258.341 1511.93 261.396 1516.54 Q264.475 1521.12 264.475 1529.87 Q264.475 1538.6 261.396 1543.21 Q258.341 1547.79 252.531 1547.79 Q246.72 1547.79 243.642 1543.21 Q240.586 1538.6 240.586 1529.87 Q240.586 1521.12 243.642 1516.54 Q246.72 1511.93 252.531 1511.93 Z" fill="#000000" fill-rule="evenodd" fill-opacity="1" /><path clip-path="url(#clip470)" d="M698.228 1515.64 Q694.617 1515.64 692.788 1519.2 Q690.983 1522.75 690.983 1529.87 Q690.983 1536.98 692.788 1540.55 Q694.617 1544.09 698.228 1544.09 Q701.862 1544.09 703.668 1540.55 Q705.496 1536.98 705.496 1529.87 Q705.496 1522.75 703.668 1519.2 Q701.862 1515.64 698.228 1515.64 M698.228 1511.93 Q704.038 1511.93 707.094 1516.54 Q710.172 1521.12 710.172 1529.87 Q710.172 1538.6 707.094 1543.21 Q704.038 1547.79 698.228 1547.79 Q692.418 1547.79 689.339 1543.21 Q686.284 1538.6 686.284 1529.87 Q686.284 1521.12 689.339 1516.54 Q692.418 1511.93 698.228 1511.93 Z" fill="#000000" fill-rule="evenodd" fill-opacity="1" /><path clip-path="url(#clip470)" d="M718.39 1541.24 L723.274 1541.24 L723.274 1547.12 L718.39 1547.12 L718.39 1541.24 Z" fill="#000000" fill-rule="evenodd" fill-opacity="1" /><path clip-path="url(#clip470)" d="M737.487 1543.18 L753.806 1543.18 L753.806 1547.12 L731.862 1547.12 L731.862 1543.18 Q734.524 1540.43 739.107 1535.8 Q743.714 1531.15 744.894 1529.81 Q747.14 1527.28 748.019 1525.55 Q748.922 1523.79 748.922 1522.1 Q748.922 1519.34 746.978 1517.61 Q745.056 1515.87 741.955 1515.87 Q739.755 1515.87 737.302 1516.63 Q734.871 1517.4 732.093 1518.95 L732.093 1514.23 Q734.918 1513.09 737.371 1512.51 Q739.825 1511.93 741.862 1511.93 Q747.232 1511.93 750.427 1514.62 Q753.621 1517.31 753.621 1521.8 Q753.621 1523.93 752.811 1525.85 Q752.024 1527.74 749.917 1530.34 Q749.339 1531.01 746.237 1534.23 Q743.135 1537.42 737.487 1543.18 Z" fill="#000000" fill-rule="evenodd" fill-opacity="1" /><path clip-path="url(#clip470)" d="M763.667 1512.56 L782.024 1512.56 L782.024 1516.5 L767.95 1516.5 L767.95 1524.97 Q768.968 1524.62 769.987 1524.46 Q771.005 1524.27 772.024 1524.27 Q777.811 1524.27 781.19 1527.44 Q784.57 1530.62 784.57 1536.03 Q784.57 1541.61 781.098 1544.71 Q777.626 1547.79 771.306 1547.79 Q769.13 1547.79 766.862 1547.42 Q764.616 1547.05 762.209 1546.31 L762.209 1541.61 Q764.292 1542.74 766.515 1543.3 Q768.737 1543.86 771.214 1543.86 Q775.218 1543.86 777.556 1541.75 Q779.894 1539.64 779.894 1536.03 Q779.894 1532.42 777.556 1530.31 Q775.218 1528.21 771.214 1528.21 Q769.339 1528.21 767.464 1528.62 Q765.612 1529.04 763.667 1529.92 L763.667 1512.56 Z" fill="#000000" fill-rule="evenodd" fill-opacity="1" /><path clip-path="url(#clip470)" d="M1218.32 1515.64 Q1214.71 1515.64 1212.88 1519.2 Q1211.08 1522.75 1211.08 1529.87 Q1211.08 1536.98 1212.88 1540.55 Q1214.71 1544.09 1218.32 1544.09 Q1221.96 1544.09 1223.76 1540.55 Q1225.59 1536.98 1225.59 1529.87 Q1225.59 1522.75 1223.76 1519.2 Q1221.96 1515.64 1218.32 1515.64 M1218.32 1511.93 Q1224.13 1511.93 1227.19 1516.54 Q1230.27 1521.12 1230.27 1529.87 Q1230.27 1538.6 1227.19 1543.21 Q1224.13 1547.79 1218.32 1547.79 Q1212.51 1547.79 1209.43 1543.21 Q1206.38 1538.6 1206.38 1529.87 Q1206.38 1521.12 1209.43 1516.54 Q1212.51 1511.93 1218.32 1511.93 Z" fill="#000000" fill-rule="evenodd" fill-opacity="1" /><path clip-path="url(#clip470)" d="M1238.48 1541.24 L1243.37 1541.24 L1243.37 1547.12 L1238.48 1547.12 L1238.48 1541.24 Z" fill="#000000" fill-rule="evenodd" fill-opacity="1" /><path clip-path="url(#clip470)" d="M1253.6 1512.56 L1271.96 1512.56 L1271.96 1516.5 L1257.88 1516.5 L1257.88 1524.97 Q1258.9 1524.62 1259.92 1524.46 Q1260.94 1524.27 1261.96 1524.27 Q1267.74 1524.27 1271.12 1527.44 Q1274.5 1530.62 1274.5 1536.03 Q1274.5 1541.61 1271.03 1544.71 Q1267.56 1547.79 1261.24 1547.79 Q1259.06 1547.79 1256.79 1547.42 Q1254.55 1547.05 1252.14 1546.31 L1252.14 1541.61 Q1254.23 1542.74 1256.45 1543.3 Q1258.67 1543.86 1261.15 1543.86 Q1265.15 1543.86 1267.49 1541.75 Q1269.83 1539.64 1269.83 1536.03 Q1269.83 1532.42 1267.49 1530.31 Q1265.15 1528.21 1261.15 1528.21 Q1259.27 1528.21 1257.4 1528.62 Q1255.54 1529.04 1253.6 1529.92 L1253.6 1512.56 Z" fill="#000000" fill-rule="evenodd" fill-opacity="1" /><path clip-path="url(#clip470)" d="M1293.72 1515.64 Q1290.1 1515.64 1288.28 1519.2 Q1286.47 1522.75 1286.47 1529.87 Q1286.47 1536.98 1288.28 1540.55 Q1290.1 1544.09 1293.72 1544.09 Q1297.35 1544.09 1299.16 1540.55 Q1300.98 1536.98 1300.98 1529.87 Q1300.98 1522.75 1299.16 1519.2 Q1297.35 1515.64 1293.72 1515.64 M1293.72 1511.93 Q1299.53 1511.93 1302.58 1516.54 Q1305.66 1521.12 1305.66 1529.87 Q1305.66 1538.6 1302.58 1543.21 Q1299.53 1547.79 1293.72 1547.79 Q1287.91 1547.79 1284.83 1543.21 Q1281.77 1538.6 1281.77 1529.87 Q1281.77 1521.12 1284.83 1516.54 Q1287.91 1511.93 1293.72 1511.93 Z" fill="#000000" fill-rule="evenodd" fill-opacity="1" /><path clip-path="url(#clip470)" d="M1739.41 1515.64 Q1735.8 1515.64 1733.97 1519.2 Q1732.17 1522.75 1732.17 1529.87 Q1732.17 1536.98 1733.97 1540.55 Q1735.8 1544.09 1739.41 1544.09 Q1743.05 1544.09 1744.85 1540.55 Q1746.68 1536.98 1746.68 1529.87 Q1746.68 1522.75 1744.85 1519.2 Q1743.05 1515.64 1739.41 1515.64 M1739.41 1511.93 Q1745.22 1511.93 1748.28 1516.54 Q1751.36 1521.12 1751.36 1529.87 Q1751.36 1538.6 1748.28 1543.21 Q1745.22 1547.79 1739.41 1547.79 Q1733.6 1547.79 1730.52 1543.21 Q1727.47 1538.6 1727.47 1529.87 Q1727.47 1521.12 1730.52 1516.54 Q1733.6 1511.93 1739.41 1511.93 Z" fill="#000000" fill-rule="evenodd" fill-opacity="1" /><path clip-path="url(#clip470)" d="M1759.58 1541.24 L1764.46 1541.24 L1764.46 1547.12 L1759.58 1547.12 L1759.58 1541.24 Z" fill="#000000" fill-rule="evenodd" fill-opacity="1" /><path clip-path="url(#clip470)" d="M1773.46 1512.56 L1795.69 1512.56 L1795.69 1514.55 L1783.14 1547.12 L1778.26 1547.12 L1790.06 1516.5 L1773.46 1516.5 L1773.46 1512.56 Z" fill="#000000" fill-rule="evenodd" fill-opacity="1" /><path clip-path="url(#clip470)" d="M1804.85 1512.56 L1823.21 1512.56 L1823.21 1516.5 L1809.14 1516.5 L1809.14 1524.97 Q1810.15 1524.62 1811.17 1524.46 Q1812.19 1524.27 1813.21 1524.27 Q1819 1524.27 1822.38 1527.44 Q1825.76 1530.62 1825.76 1536.03 Q1825.76 1541.61 1822.28 1544.71 Q1818.81 1547.79 1812.49 1547.79 Q1810.32 1547.79 1808.05 1547.42 Q1805.8 1547.05 1803.39 1546.31 L1803.39 1541.61 Q1805.48 1542.74 1807.7 1543.3 Q1809.92 1543.86 1812.4 1543.86 Q1816.4 1543.86 1818.74 1541.75 Q1821.08 1539.64 1821.08 1536.03 Q1821.08 1532.42 1818.74 1530.31 Q1816.4 1528.21 1812.4 1528.21 Q1810.52 1528.21 1808.65 1528.62 Q1806.8 1529.04 1804.85 1529.92 L1804.85 1512.56 Z" fill="#000000" fill-rule="evenodd" fill-opacity="1" /><path clip-path="url(#clip470)" d="M2249.28 1543.18 L2256.92 1543.18 L2256.92 1516.82 L2248.61 1518.49 L2248.61 1514.23 L2256.87 1512.56 L2261.55 1512.56 L2261.55 1543.18 L2269.18 1543.18 L2269.18 1547.12 L2249.28 1547.12 L2249.28 1543.18 Z" fill="#000000" fill-rule="evenodd" fill-opacity="1" /><path clip-path="url(#clip470)" d="M2278.63 1541.24 L2283.51 1541.24 L2283.51 1547.12 L2278.63 1547.12 L2278.63 1541.24 Z" fill="#000000" fill-rule="evenodd" fill-opacity="1" /><path clip-path="url(#clip470)" d="M2303.7 1515.64 Q2300.09 1515.64 2298.26 1519.2 Q2296.45 1522.75 2296.45 1529.87 Q2296.45 1536.98 2298.26 1540.55 Q2300.09 1544.09 2303.7 1544.09 Q2307.33 1544.09 2309.14 1540.55 Q2310.97 1536.98 2310.97 1529.87 Q2310.97 1522.75 2309.14 1519.2 Q2307.33 1515.64 2303.7 1515.64 M2303.7 1511.93 Q2309.51 1511.93 2312.56 1516.54 Q2315.64 1521.12 2315.64 1529.87 Q2315.64 1538.6 2312.56 1543.21 Q2309.51 1547.79 2303.7 1547.79 Q2297.89 1547.79 2294.81 1543.21 Q2291.75 1538.6 2291.75 1529.87 Q2291.75 1521.12 2294.81 1516.54 Q2297.89 1511.93 2303.7 1511.93 Z" fill="#000000" fill-rule="evenodd" fill-opacity="1" /><path clip-path="url(#clip470)" d="M2333.86 1515.64 Q2330.25 1515.64 2328.42 1519.2 Q2326.61 1522.75 2326.61 1529.87 Q2326.61 1536.98 2328.42 1540.55 Q2330.25 1544.09 2333.86 1544.09 Q2337.49 1544.09 2339.3 1540.55 Q2341.13 1536.98 2341.13 1529.87 Q2341.13 1522.75 2339.3 1519.2 Q2337.49 1515.64 2333.86 1515.64 M2333.86 1511.93 Q2339.67 1511.93 2342.73 1516.54 Q2345.8 1521.12 2345.8 1529.87 Q2345.8 1538.6 2342.73 1543.21 Q2339.67 1547.79 2333.86 1547.79 Q2328.05 1547.79 2324.97 1543.21 Q2321.92 1538.6 2321.92 1529.87 Q2321.92 1521.12 2324.97 1516.54 Q2328.05 1511.93 2333.86 1511.93 Z" fill="#000000" fill-rule="evenodd" fill-opacity="1" /><polyline clip-path="url(#clip472)" style="stroke:#000000; stroke-linecap:butt; stroke-linejoin:round; stroke-width:2; stroke-opacity:0.1; fill:none" points="
  156.598,1460.7 2352.76,1460.7 
  "/>
<polyline clip-path="url(#clip472)" style="stroke:#000000; stroke-linecap:butt; stroke-linejoin:round; stroke-width:2; stroke-opacity:0.1; fill:none" points="
  156.598,1176.48 2352.76,1176.48 
  "/>
<polyline clip-path="url(#clip472)" style="stroke:#000000; stroke-linecap:butt; stroke-linejoin:round; stroke-width:2; stroke-opacity:0.1; fill:none" points="
  156.598,892.253 2352.76,892.253 
  "/>
<polyline clip-path="url(#clip472)" style="stroke:#000000; stroke-linecap:butt; stroke-linejoin:round; stroke-width:2; stroke-opacity:0.1; fill:none" points="
  156.598,608.028 2352.76,608.028 
  "/>
<polyline clip-path="url(#clip472)" style="stroke:#000000; stroke-linecap:butt; stroke-linejoin:round; stroke-width:2; stroke-opacity:0.1; fill:none" points="
  156.598,323.803 2352.76,323.803 
  "/>
<polyline clip-path="url(#clip470)" style="stroke:#000000; stroke-linecap:butt; stroke-linejoin:round; stroke-width:4; stroke-opacity:1; fill:none" points="
  156.598,1486.45 156.598,47.2441 
  "/>
<polyline clip-path="url(#clip470)" style="stroke:#000000; stroke-linecap:butt; stroke-linejoin:round; stroke-width:4; stroke-opacity:1; fill:none" points="
  156.598,1460.7 182.952,1460.7 
  "/>
<polyline clip-path="url(#clip470)" style="stroke:#000000; stroke-linecap:butt; stroke-linejoin:round; stroke-width:4; stroke-opacity:1; fill:none" points="
  156.598,1176.48 182.952,1176.48 
  "/>
<polyline clip-path="url(#clip470)" style="stroke:#000000; stroke-linecap:butt; stroke-linejoin:round; stroke-width:4; stroke-opacity:1; fill:none" points="
  156.598,892.253 182.952,892.253 
  "/>
<polyline clip-path="url(#clip470)" style="stroke:#000000; stroke-linecap:butt; stroke-linejoin:round; stroke-width:4; stroke-opacity:1; fill:none" points="
  156.598,608.028 182.952,608.028 
  "/>
<polyline clip-path="url(#clip470)" style="stroke:#000000; stroke-linecap:butt; stroke-linejoin:round; stroke-width:4; stroke-opacity:1; fill:none" points="
  156.598,323.803 182.952,323.803 
  "/>
<path clip-path="url(#clip470)" d="M63.4226 1446.5 Q59.8115 1446.5 57.9828 1450.07 Q56.1773 1453.61 56.1773 1460.74 Q56.1773 1467.84 57.9828 1471.41 Q59.8115 1474.95 63.4226 1474.95 Q67.0569 1474.95 68.8624 1471.41 Q70.6911 1467.84 70.6911 1460.74 Q70.6911 1453.61 68.8624 1450.07 Q67.0569 1446.5 63.4226 1446.5 M63.4226 1442.8 Q69.2328 1442.8 72.2883 1447.4 Q75.367 1451.99 75.367 1460.74 Q75.367 1469.46 72.2883 1474.07 Q69.2328 1478.65 63.4226 1478.65 Q57.6125 1478.65 54.5338 1474.07 Q51.4782 1469.46 51.4782 1460.74 Q51.4782 1451.99 54.5338 1447.4 Q57.6125 1442.8 63.4226 1442.8 Z" fill="#000000" fill-rule="evenodd" fill-opacity="1" /><path clip-path="url(#clip470)" d="M83.5845 1472.1 L88.4688 1472.1 L88.4688 1477.98 L83.5845 1477.98 L83.5845 1472.1 Z" fill="#000000" fill-rule="evenodd" fill-opacity="1" /><path clip-path="url(#clip470)" d="M108.654 1446.5 Q105.043 1446.5 103.214 1450.07 Q101.409 1453.61 101.409 1460.74 Q101.409 1467.84 103.214 1471.41 Q105.043 1474.95 108.654 1474.95 Q112.288 1474.95 114.094 1471.41 Q115.922 1467.84 115.922 1460.74 Q115.922 1453.61 114.094 1450.07 Q112.288 1446.5 108.654 1446.5 M108.654 1442.8 Q114.464 1442.8 117.52 1447.4 Q120.598 1451.99 120.598 1460.74 Q120.598 1469.46 117.52 1474.07 Q114.464 1478.65 108.654 1478.65 Q102.844 1478.65 99.765 1474.07 Q96.7095 1469.46 96.7095 1460.74 Q96.7095 1451.99 99.765 1447.4 Q102.844 1442.8 108.654 1442.8 Z" fill="#000000" fill-rule="evenodd" fill-opacity="1" /><path clip-path="url(#clip470)" d="M65.0198 1162.28 Q61.4087 1162.28 59.58 1165.84 Q57.7745 1169.38 57.7745 1176.51 Q57.7745 1183.62 59.58 1187.18 Q61.4087 1190.73 65.0198 1190.73 Q68.6541 1190.73 70.4596 1187.18 Q72.2883 1183.62 72.2883 1176.51 Q72.2883 1169.38 70.4596 1165.84 Q68.6541 1162.28 65.0198 1162.28 M65.0198 1158.57 Q70.83 1158.57 73.8855 1163.18 Q76.9642 1167.76 76.9642 1176.51 Q76.9642 1185.24 73.8855 1189.85 Q70.83 1194.43 65.0198 1194.43 Q59.2097 1194.43 56.131 1189.85 Q53.0754 1185.24 53.0754 1176.51 Q53.0754 1167.76 56.131 1163.18 Q59.2097 1158.57 65.0198 1158.57 Z" fill="#000000" fill-rule="evenodd" fill-opacity="1" /><path clip-path="url(#clip470)" d="M85.1818 1187.88 L90.066 1187.88 L90.066 1193.76 L85.1818 1193.76 L85.1818 1187.88 Z" fill="#000000" fill-rule="evenodd" fill-opacity="1" /><path clip-path="url(#clip470)" d="M104.279 1189.82 L120.598 1189.82 L120.598 1193.76 L98.6539 1193.76 L98.6539 1189.82 Q101.316 1187.07 105.899 1182.44 Q110.506 1177.79 111.686 1176.44 Q113.932 1173.92 114.811 1172.18 Q115.714 1170.43 115.714 1168.74 Q115.714 1165.98 113.77 1164.24 Q111.848 1162.51 108.746 1162.51 Q106.547 1162.51 104.094 1163.27 Q101.663 1164.04 98.8854 1165.59 L98.8854 1160.87 Q101.709 1159.73 104.163 1159.15 Q106.617 1158.57 108.654 1158.57 Q114.024 1158.57 117.219 1161.26 Q120.413 1163.94 120.413 1168.43 Q120.413 1170.56 119.603 1172.49 Q118.816 1174.38 116.709 1176.98 Q116.131 1177.65 113.029 1180.86 Q109.927 1184.06 104.279 1189.82 Z" fill="#000000" fill-rule="evenodd" fill-opacity="1" /><path clip-path="url(#clip470)" d="M62.9365 878.052 Q59.3254 878.052 57.4967 881.617 Q55.6912 885.159 55.6912 892.288 Q55.6912 899.395 57.4967 902.959 Q59.3254 906.501 62.9365 906.501 Q66.5707 906.501 68.3763 902.959 Q70.205 899.395 70.205 892.288 Q70.205 885.159 68.3763 881.617 Q66.5707 878.052 62.9365 878.052 M62.9365 874.348 Q68.7467 874.348 71.8022 878.955 Q74.8809 883.538 74.8809 892.288 Q74.8809 901.015 71.8022 905.621 Q68.7467 910.205 62.9365 910.205 Q57.1264 910.205 54.0477 905.621 Q50.9921 901.015 50.9921 892.288 Q50.9921 883.538 54.0477 878.955 Q57.1264 874.348 62.9365 874.348 Z" fill="#000000" fill-rule="evenodd" fill-opacity="1" /><path clip-path="url(#clip470)" d="M83.0984 903.654 L87.9827 903.654 L87.9827 909.533 L83.0984 909.533 L83.0984 903.654 Z" fill="#000000" fill-rule="evenodd" fill-opacity="1" /><path clip-path="url(#clip470)" d="M111.015 879.047 L99.2095 897.496 L111.015 897.496 L111.015 879.047 M109.788 874.973 L115.668 874.973 L115.668 897.496 L120.598 897.496 L120.598 901.385 L115.668 901.385 L115.668 909.533 L111.015 909.533 L111.015 901.385 L95.4132 901.385 L95.4132 896.871 L109.788 874.973 Z" fill="#000000" fill-rule="evenodd" fill-opacity="1" /><path clip-path="url(#clip470)" d="M63.2606 593.827 Q59.6495 593.827 57.8208 597.392 Q56.0152 600.934 56.0152 608.063 Q56.0152 615.17 57.8208 618.734 Q59.6495 622.276 63.2606 622.276 Q66.8948 622.276 68.7004 618.734 Q70.5291 615.17 70.5291 608.063 Q70.5291 600.934 68.7004 597.392 Q66.8948 593.827 63.2606 593.827 M63.2606 590.123 Q69.0707 590.123 72.1263 594.73 Q75.205 599.313 75.205 608.063 Q75.205 616.79 72.1263 621.396 Q69.0707 625.98 63.2606 625.98 Q57.4504 625.98 54.3717 621.396 Q51.3162 616.79 51.3162 608.063 Q51.3162 599.313 54.3717 594.73 Q57.4504 590.123 63.2606 590.123 Z" fill="#000000" fill-rule="evenodd" fill-opacity="1" /><path clip-path="url(#clip470)" d="M83.4225 619.429 L88.3067 619.429 L88.3067 625.308 L83.4225 625.308 L83.4225 619.429 Z" fill="#000000" fill-rule="evenodd" fill-opacity="1" /><path clip-path="url(#clip470)" d="M109.071 606.165 Q105.922 606.165 104.071 608.318 Q102.242 610.471 102.242 614.221 Q102.242 617.947 104.071 620.123 Q105.922 622.276 109.071 622.276 Q112.219 622.276 114.047 620.123 Q115.899 617.947 115.899 614.221 Q115.899 610.471 114.047 608.318 Q112.219 606.165 109.071 606.165 M118.353 591.512 L118.353 595.772 Q116.594 594.938 114.788 594.498 Q113.006 594.059 111.246 594.059 Q106.617 594.059 104.163 597.184 Q101.733 600.309 101.385 606.628 Q102.751 604.614 104.811 603.549 Q106.871 602.461 109.348 602.461 Q114.557 602.461 117.566 605.633 Q120.598 608.781 120.598 614.221 Q120.598 619.545 117.45 622.762 Q114.302 625.98 109.071 625.98 Q103.075 625.98 99.9039 621.396 Q96.7326 616.79 96.7326 608.063 Q96.7326 599.869 100.621 595.008 Q104.51 590.123 111.061 590.123 Q112.82 590.123 114.603 590.471 Q116.408 590.818 118.353 591.512 Z" fill="#000000" fill-rule="evenodd" fill-opacity="1" /><path clip-path="url(#clip470)" d="M63.5152 309.602 Q59.9041 309.602 58.0754 313.167 Q56.2699 316.709 56.2699 323.838 Q56.2699 330.945 58.0754 334.509 Q59.9041 338.051 63.5152 338.051 Q67.1494 338.051 68.955 334.509 Q70.7837 330.945 70.7837 323.838 Q70.7837 316.709 68.955 313.167 Q67.1494 309.602 63.5152 309.602 M63.5152 305.898 Q69.3254 305.898 72.3809 310.505 Q75.4596 315.088 75.4596 323.838 Q75.4596 332.565 72.3809 337.171 Q69.3254 341.755 63.5152 341.755 Q57.7051 341.755 54.6264 337.171 Q51.5708 332.565 51.5708 323.838 Q51.5708 315.088 54.6264 310.505 Q57.7051 305.898 63.5152 305.898 Z" fill="#000000" fill-rule="evenodd" fill-opacity="1" /><path clip-path="url(#clip470)" d="M83.6771 335.204 L88.5614 335.204 L88.5614 341.083 L83.6771 341.083 L83.6771 335.204 Z" fill="#000000" fill-rule="evenodd" fill-opacity="1" /><path clip-path="url(#clip470)" d="M108.746 324.671 Q105.413 324.671 103.492 326.454 Q101.594 328.236 101.594 331.361 Q101.594 334.486 103.492 336.269 Q105.413 338.051 108.746 338.051 Q112.08 338.051 114.001 336.269 Q115.922 334.463 115.922 331.361 Q115.922 328.236 114.001 326.454 Q112.103 324.671 108.746 324.671 M104.071 322.681 Q101.061 321.94 99.3715 319.88 Q97.7048 317.82 97.7048 314.857 Q97.7048 310.713 100.645 308.306 Q103.608 305.898 108.746 305.898 Q113.908 305.898 116.848 308.306 Q119.788 310.713 119.788 314.857 Q119.788 317.82 118.098 319.88 Q116.432 321.94 113.445 322.681 Q116.825 323.468 118.7 325.759 Q120.598 328.051 120.598 331.361 Q120.598 336.384 117.52 339.07 Q114.464 341.755 108.746 341.755 Q103.029 341.755 99.9502 339.07 Q96.8947 336.384 96.8947 331.361 Q96.8947 328.051 98.7928 325.759 Q100.691 323.468 104.071 322.681 M102.358 315.297 Q102.358 317.982 104.024 319.486 Q105.714 320.991 108.746 320.991 Q111.756 320.991 113.445 319.486 Q115.158 317.982 115.158 315.297 Q115.158 312.611 113.445 311.107 Q111.756 309.602 108.746 309.602 Q105.714 309.602 104.024 311.107 Q102.358 312.611 102.358 315.297 Z" fill="#000000" fill-rule="evenodd" fill-opacity="1" /><circle clip-path="url(#clip472)" cx="270.742" cy="385.544" r="14" fill="#009af9" fill-rule="evenodd" fill-opacity="1" stroke="#000000" stroke-opacity="1" stroke-width="3.2"/>
<circle clip-path="url(#clip472)" cx="519.557" cy="780.71" r="14" fill="#009af9" fill-rule="evenodd" fill-opacity="1" stroke="#000000" stroke-opacity="1" stroke-width="3.2"/>
<circle clip-path="url(#clip472)" cx="1759.46" cy="810.438" r="14" fill="#009af9" fill-rule="evenodd" fill-opacity="1" stroke="#000000" stroke-opacity="1" stroke-width="3.2"/>
<circle clip-path="url(#clip472)" cx="332.297" cy="358.202" r="14" fill="#009af9" fill-rule="evenodd" fill-opacity="1" stroke="#000000" stroke-opacity="1" stroke-width="3.2"/>
<circle clip-path="url(#clip472)" cx="1495.18" cy="823.443" r="14" fill="#009af9" fill-rule="evenodd" fill-opacity="1" stroke="#000000" stroke-opacity="1" stroke-width="3.2"/>
<circle clip-path="url(#clip472)" cx="1019.75" cy="781.923" r="14" fill="#009af9" fill-rule="evenodd" fill-opacity="1" stroke="#000000" stroke-opacity="1" stroke-width="3.2"/>
<circle clip-path="url(#clip472)" cx="1858.47" cy="570.574" r="14" fill="#009af9" fill-rule="evenodd" fill-opacity="1" stroke="#000000" stroke-opacity="1" stroke-width="3.2"/>
<circle clip-path="url(#clip472)" cx="1955.25" cy="1235.95" r="14" fill="#009af9" fill-rule="evenodd" fill-opacity="1" stroke="#000000" stroke-opacity="1" stroke-width="3.2"/>
<circle clip-path="url(#clip472)" cx="1078.93" cy="762.404" r="14" fill="#009af9" fill-rule="evenodd" fill-opacity="1" stroke="#000000" stroke-opacity="1" stroke-width="3.2"/>
<circle clip-path="url(#clip472)" cx="2102.36" cy="885.971" r="14" fill="#009af9" fill-rule="evenodd" fill-opacity="1" stroke="#000000" stroke-opacity="1" stroke-width="3.2"/>
<circle clip-path="url(#clip472)" cx="1313.05" cy="139.576" r="14" fill="#009af9" fill-rule="evenodd" fill-opacity="1" stroke="#000000" stroke-opacity="1" stroke-width="3.2"/>
<circle clip-path="url(#clip472)" cx="1624.48" cy="662.938" r="14" fill="#009af9" fill-rule="evenodd" fill-opacity="1" stroke="#000000" stroke-opacity="1" stroke-width="3.2"/>
<circle clip-path="url(#clip472)" cx="421.213" cy="793.561" r="14" fill="#009af9" fill-rule="evenodd" fill-opacity="1" stroke="#000000" stroke-opacity="1" stroke-width="3.2"/>
<circle clip-path="url(#clip472)" cx="1274.07" cy="1167.42" r="14" fill="#009af9" fill-rule="evenodd" fill-opacity="1" stroke="#000000" stroke-opacity="1" stroke-width="3.2"/>
<circle clip-path="url(#clip472)" cx="1568.48" cy="992.64" r="14" fill="#009af9" fill-rule="evenodd" fill-opacity="1" stroke="#000000" stroke-opacity="1" stroke-width="3.2"/>
<circle clip-path="url(#clip472)" cx="1000.57" cy="87.9763" r="14" fill="#009af9" fill-rule="evenodd" fill-opacity="1" stroke="#000000" stroke-opacity="1" stroke-width="3.2"/>
<circle clip-path="url(#clip472)" cx="293.815" cy="1190.23" r="14" fill="#009af9" fill-rule="evenodd" fill-opacity="1" stroke="#000000" stroke-opacity="1" stroke-width="3.2"/>
<circle clip-path="url(#clip472)" cx="2005.42" cy="1309.72" r="14" fill="#009af9" fill-rule="evenodd" fill-opacity="1" stroke="#000000" stroke-opacity="1" stroke-width="3.2"/>
<circle clip-path="url(#clip472)" cx="971.892" cy="1004.77" r="14" fill="#009af9" fill-rule="evenodd" fill-opacity="1" stroke="#000000" stroke-opacity="1" stroke-width="3.2"/>
<circle clip-path="url(#clip472)" cx="662.59" cy="1434.25" r="14" fill="#009af9" fill-rule="evenodd" fill-opacity="1" stroke="#000000" stroke-opacity="1" stroke-width="3.2"/>
<circle clip-path="url(#clip472)" cx="1961.9" cy="211.635" r="14" fill="#009af9" fill-rule="evenodd" fill-opacity="1" stroke="#000000" stroke-opacity="1" stroke-width="3.2"/>
<circle clip-path="url(#clip472)" cx="507.804" cy="943.644" r="14" fill="#009af9" fill-rule="evenodd" fill-opacity="1" stroke="#000000" stroke-opacity="1" stroke-width="3.2"/>
<circle clip-path="url(#clip472)" cx="2062.02" cy="1313.58" r="14" fill="#009af9" fill-rule="evenodd" fill-opacity="1" stroke="#000000" stroke-opacity="1" stroke-width="3.2"/>
<circle clip-path="url(#clip472)" cx="962.105" cy="586.383" r="14" fill="#009af9" fill-rule="evenodd" fill-opacity="1" stroke="#000000" stroke-opacity="1" stroke-width="3.2"/>
<circle clip-path="url(#clip472)" cx="1689.52" cy="707.321" r="14" fill="#009af9" fill-rule="evenodd" fill-opacity="1" stroke="#000000" stroke-opacity="1" stroke-width="3.2"/>
<circle clip-path="url(#clip472)" cx="1883.66" cy="1121.91" r="14" fill="#009af9" fill-rule="evenodd" fill-opacity="1" stroke="#000000" stroke-opacity="1" stroke-width="3.2"/>
<circle clip-path="url(#clip472)" cx="1742.22" cy="165.021" r="14" fill="#009af9" fill-rule="evenodd" fill-opacity="1" stroke="#000000" stroke-opacity="1" stroke-width="3.2"/>
<circle clip-path="url(#clip472)" cx="305.217" cy="753.883" r="14" fill="#009af9" fill-rule="evenodd" fill-opacity="1" stroke="#000000" stroke-opacity="1" stroke-width="3.2"/>
<circle clip-path="url(#clip472)" cx="1636.57" cy="1089.65" r="14" fill="#009af9" fill-rule="evenodd" fill-opacity="1" stroke="#000000" stroke-opacity="1" stroke-width="3.2"/>
<circle clip-path="url(#clip472)" cx="811.56" cy="515.137" r="14" fill="#009af9" fill-rule="evenodd" fill-opacity="1" stroke="#000000" stroke-opacity="1" stroke-width="3.2"/>
<circle clip-path="url(#clip472)" cx="977.164" cy="554.5" r="14" fill="#009af9" fill-rule="evenodd" fill-opacity="1" stroke="#000000" stroke-opacity="1" stroke-width="3.2"/>
<circle clip-path="url(#clip472)" cx="1267.43" cy="552.874" r="14" fill="#009af9" fill-rule="evenodd" fill-opacity="1" stroke="#000000" stroke-opacity="1" stroke-width="3.2"/>
<circle clip-path="url(#clip472)" cx="522.01" cy="272.232" r="14" fill="#009af9" fill-rule="evenodd" fill-opacity="1" stroke="#000000" stroke-opacity="1" stroke-width="3.2"/>
<circle clip-path="url(#clip472)" cx="1376.08" cy="197.275" r="14" fill="#009af9" fill-rule="evenodd" fill-opacity="1" stroke="#000000" stroke-opacity="1" stroke-width="3.2"/>
<circle clip-path="url(#clip472)" cx="464.348" cy="104.676" r="14" fill="#009af9" fill-rule="evenodd" fill-opacity="1" stroke="#000000" stroke-opacity="1" stroke-width="3.2"/>
<circle clip-path="url(#clip472)" cx="1200.36" cy="1127.18" r="14" fill="#009af9" fill-rule="evenodd" fill-opacity="1" stroke="#000000" stroke-opacity="1" stroke-width="3.2"/>
<circle clip-path="url(#clip472)" cx="308.765" cy="192.704" r="14" fill="#009af9" fill-rule="evenodd" fill-opacity="1" stroke="#000000" stroke-opacity="1" stroke-width="3.2"/>
<circle clip-path="url(#clip472)" cx="802.039" cy="877.405" r="14" fill="#009af9" fill-rule="evenodd" fill-opacity="1" stroke="#000000" stroke-opacity="1" stroke-width="3.2"/>
<circle clip-path="url(#clip472)" cx="2096.11" cy="1121.81" r="14" fill="#009af9" fill-rule="evenodd" fill-opacity="1" stroke="#000000" stroke-opacity="1" stroke-width="3.2"/>
<circle clip-path="url(#clip472)" cx="814.176" cy="804.519" r="14" fill="#009af9" fill-rule="evenodd" fill-opacity="1" stroke="#000000" stroke-opacity="1" stroke-width="3.2"/>
<circle clip-path="url(#clip472)" cx="1681.96" cy="794.724" r="14" fill="#009af9" fill-rule="evenodd" fill-opacity="1" stroke="#000000" stroke-opacity="1" stroke-width="3.2"/>
<circle clip-path="url(#clip472)" cx="2007.34" cy="114.939" r="14" fill="#009af9" fill-rule="evenodd" fill-opacity="1" stroke="#000000" stroke-opacity="1" stroke-width="3.2"/>
<circle clip-path="url(#clip472)" cx="927.575" cy="374.371" r="14" fill="#009af9" fill-rule="evenodd" fill-opacity="1" stroke="#000000" stroke-opacity="1" stroke-width="3.2"/>
<circle clip-path="url(#clip472)" cx="1165.31" cy="1441.72" r="14" fill="#009af9" fill-rule="evenodd" fill-opacity="1" stroke="#000000" stroke-opacity="1" stroke-width="3.2"/>
<circle clip-path="url(#clip472)" cx="1766.54" cy="309.339" r="14" fill="#009af9" fill-rule="evenodd" fill-opacity="1" stroke="#000000" stroke-opacity="1" stroke-width="3.2"/>
<circle clip-path="url(#clip472)" cx="760.049" cy="837.236" r="14" fill="#009af9" fill-rule="evenodd" fill-opacity="1" stroke="#000000" stroke-opacity="1" stroke-width="3.2"/>
<circle clip-path="url(#clip472)" cx="2021.82" cy="1323.83" r="14" fill="#009af9" fill-rule="evenodd" fill-opacity="1" stroke="#000000" stroke-opacity="1" stroke-width="3.2"/>
<circle clip-path="url(#clip472)" cx="1744.11" cy="680.709" r="14" fill="#009af9" fill-rule="evenodd" fill-opacity="1" stroke="#000000" stroke-opacity="1" stroke-width="3.2"/>
<circle clip-path="url(#clip472)" cx="1753" cy="758.657" r="14" fill="#009af9" fill-rule="evenodd" fill-opacity="1" stroke="#000000" stroke-opacity="1" stroke-width="3.2"/>
<circle clip-path="url(#clip472)" cx="218.754" cy="597.882" r="14" fill="#009af9" fill-rule="evenodd" fill-opacity="1" stroke="#000000" stroke-opacity="1" stroke-width="3.2"/>
<circle clip-path="url(#clip472)" cx="685.64" cy="93.4142" r="14" fill="#009af9" fill-rule="evenodd" fill-opacity="1" stroke="#000000" stroke-opacity="1" stroke-width="3.2"/>
<circle clip-path="url(#clip472)" cx="1846.4" cy="1217.16" r="14" fill="#009af9" fill-rule="evenodd" fill-opacity="1" stroke="#000000" stroke-opacity="1" stroke-width="3.2"/>
<circle clip-path="url(#clip472)" cx="1239.26" cy="1033.43" r="14" fill="#009af9" fill-rule="evenodd" fill-opacity="1" stroke="#000000" stroke-opacity="1" stroke-width="3.2"/>
<circle clip-path="url(#clip472)" cx="1680.44" cy="1087.92" r="14" fill="#009af9" fill-rule="evenodd" fill-opacity="1" stroke="#000000" stroke-opacity="1" stroke-width="3.2"/>
<circle clip-path="url(#clip472)" cx="1208.33" cy="649.038" r="14" fill="#009af9" fill-rule="evenodd" fill-opacity="1" stroke="#000000" stroke-opacity="1" stroke-width="3.2"/>
<circle clip-path="url(#clip472)" cx="273.915" cy="1408.61" r="14" fill="#009af9" fill-rule="evenodd" fill-opacity="1" stroke="#000000" stroke-opacity="1" stroke-width="3.2"/>
<circle clip-path="url(#clip472)" cx="1504.71" cy="705.104" r="14" fill="#009af9" fill-rule="evenodd" fill-opacity="1" stroke="#000000" stroke-opacity="1" stroke-width="3.2"/>
<circle clip-path="url(#clip472)" cx="380.113" cy="1283.37" r="14" fill="#009af9" fill-rule="evenodd" fill-opacity="1" stroke="#000000" stroke-opacity="1" stroke-width="3.2"/>
<circle clip-path="url(#clip472)" cx="1642.99" cy="1146.61" r="14" fill="#009af9" fill-rule="evenodd" fill-opacity="1" stroke="#000000" stroke-opacity="1" stroke-width="3.2"/>
<circle clip-path="url(#clip472)" cx="1913.15" cy="1307.13" r="14" fill="#009af9" fill-rule="evenodd" fill-opacity="1" stroke="#000000" stroke-opacity="1" stroke-width="3.2"/>
<circle clip-path="url(#clip472)" cx="940.123" cy="1331.91" r="14" fill="#009af9" fill-rule="evenodd" fill-opacity="1" stroke="#000000" stroke-opacity="1" stroke-width="3.2"/>
<circle clip-path="url(#clip472)" cx="999.493" cy="193.025" r="14" fill="#009af9" fill-rule="evenodd" fill-opacity="1" stroke="#000000" stroke-opacity="1" stroke-width="3.2"/>
<circle clip-path="url(#clip472)" cx="1752.22" cy="1218.09" r="14" fill="#009af9" fill-rule="evenodd" fill-opacity="1" stroke="#000000" stroke-opacity="1" stroke-width="3.2"/>
<circle clip-path="url(#clip472)" cx="1514.37" cy="1431.4" r="14" fill="#009af9" fill-rule="evenodd" fill-opacity="1" stroke="#000000" stroke-opacity="1" stroke-width="3.2"/>
<circle clip-path="url(#clip472)" cx="1271.2" cy="991.275" r="14" fill="#009af9" fill-rule="evenodd" fill-opacity="1" stroke="#000000" stroke-opacity="1" stroke-width="3.2"/>
<circle clip-path="url(#clip472)" cx="1646.37" cy="1436.45" r="14" fill="#009af9" fill-rule="evenodd" fill-opacity="1" stroke="#000000" stroke-opacity="1" stroke-width="3.2"/>
<circle clip-path="url(#clip472)" cx="1166.08" cy="550.097" r="14" fill="#009af9" fill-rule="evenodd" fill-opacity="1" stroke="#000000" stroke-opacity="1" stroke-width="3.2"/>
<circle clip-path="url(#clip472)" cx="914.222" cy="679.529" r="14" fill="#009af9" fill-rule="evenodd" fill-opacity="1" stroke="#000000" stroke-opacity="1" stroke-width="3.2"/>
<circle clip-path="url(#clip472)" cx="1461.11" cy="1174.87" r="14" fill="#009af9" fill-rule="evenodd" fill-opacity="1" stroke="#000000" stroke-opacity="1" stroke-width="3.2"/>
<circle clip-path="url(#clip472)" cx="1949.45" cy="573.295" r="14" fill="#009af9" fill-rule="evenodd" fill-opacity="1" stroke="#000000" stroke-opacity="1" stroke-width="3.2"/>
<circle clip-path="url(#clip472)" cx="1234.72" cy="316.305" r="14" fill="#009af9" fill-rule="evenodd" fill-opacity="1" stroke="#000000" stroke-opacity="1" stroke-width="3.2"/>
<circle clip-path="url(#clip472)" cx="399.669" cy="605.355" r="14" fill="#009af9" fill-rule="evenodd" fill-opacity="1" stroke="#000000" stroke-opacity="1" stroke-width="3.2"/>
<circle clip-path="url(#clip472)" cx="1608.56" cy="405.196" r="14" fill="#009af9" fill-rule="evenodd" fill-opacity="1" stroke="#000000" stroke-opacity="1" stroke-width="3.2"/>
<circle clip-path="url(#clip472)" cx="2271.86" cy="218.945" r="14" fill="#009af9" fill-rule="evenodd" fill-opacity="1" stroke="#000000" stroke-opacity="1" stroke-width="3.2"/>
<circle clip-path="url(#clip472)" cx="911.839" cy="185.813" r="14" fill="#009af9" fill-rule="evenodd" fill-opacity="1" stroke="#000000" stroke-opacity="1" stroke-width="3.2"/>
<circle clip-path="url(#clip472)" cx="646.667" cy="925.134" r="14" fill="#009af9" fill-rule="evenodd" fill-opacity="1" stroke="#000000" stroke-opacity="1" stroke-width="3.2"/>
<circle clip-path="url(#clip472)" cx="1543.53" cy="1288.4" r="14" fill="#009af9" fill-rule="evenodd" fill-opacity="1" stroke="#000000" stroke-opacity="1" stroke-width="3.2"/>
<circle clip-path="url(#clip472)" cx="332.313" cy="495.516" r="14" fill="#009af9" fill-rule="evenodd" fill-opacity="1" stroke="#000000" stroke-opacity="1" stroke-width="3.2"/>
<circle clip-path="url(#clip472)" cx="976.855" cy="718.065" r="14" fill="#009af9" fill-rule="evenodd" fill-opacity="1" stroke="#000000" stroke-opacity="1" stroke-width="3.2"/>
<circle clip-path="url(#clip472)" cx="460.536" cy="430.046" r="14" fill="#009af9" fill-rule="evenodd" fill-opacity="1" stroke="#000000" stroke-opacity="1" stroke-width="3.2"/>
<circle clip-path="url(#clip472)" cx="1910.78" cy="287.247" r="14" fill="#009af9" fill-rule="evenodd" fill-opacity="1" stroke="#000000" stroke-opacity="1" stroke-width="3.2"/>
<circle clip-path="url(#clip472)" cx="691.288" cy="413.219" r="14" fill="#009af9" fill-rule="evenodd" fill-opacity="1" stroke="#000000" stroke-opacity="1" stroke-width="3.2"/>
<circle clip-path="url(#clip472)" cx="1040.5" cy="690.92" r="14" fill="#009af9" fill-rule="evenodd" fill-opacity="1" stroke="#000000" stroke-opacity="1" stroke-width="3.2"/>
<circle clip-path="url(#clip472)" cx="1839.15" cy="124.284" r="14" fill="#009af9" fill-rule="evenodd" fill-opacity="1" stroke="#000000" stroke-opacity="1" stroke-width="3.2"/>
<circle clip-path="url(#clip472)" cx="1285.24" cy="178.176" r="14" fill="#009af9" fill-rule="evenodd" fill-opacity="1" stroke="#000000" stroke-opacity="1" stroke-width="3.2"/>
<circle clip-path="url(#clip472)" cx="669.409" cy="265.278" r="14" fill="#009af9" fill-rule="evenodd" fill-opacity="1" stroke="#000000" stroke-opacity="1" stroke-width="3.2"/>
<circle clip-path="url(#clip472)" cx="1575.65" cy="1445.72" r="14" fill="#009af9" fill-rule="evenodd" fill-opacity="1" stroke="#000000" stroke-opacity="1" stroke-width="3.2"/>
<circle clip-path="url(#clip472)" cx="1128.28" cy="646.976" r="14" fill="#009af9" fill-rule="evenodd" fill-opacity="1" stroke="#000000" stroke-opacity="1" stroke-width="3.2"/>
<circle clip-path="url(#clip472)" cx="447.403" cy="1442.56" r="14" fill="#009af9" fill-rule="evenodd" fill-opacity="1" stroke="#000000" stroke-opacity="1" stroke-width="3.2"/>
<circle clip-path="url(#clip472)" cx="570.976" cy="1343.21" r="14" fill="#009af9" fill-rule="evenodd" fill-opacity="1" stroke="#000000" stroke-opacity="1" stroke-width="3.2"/>
<circle clip-path="url(#clip472)" cx="2290.6" cy="278.583" r="14" fill="#009af9" fill-rule="evenodd" fill-opacity="1" stroke="#000000" stroke-opacity="1" stroke-width="3.2"/>
<circle clip-path="url(#clip472)" cx="2274.54" cy="1396.79" r="14" fill="#009af9" fill-rule="evenodd" fill-opacity="1" stroke="#000000" stroke-opacity="1" stroke-width="3.2"/>
<circle clip-path="url(#clip472)" cx="1048.5" cy="1028.21" r="14" fill="#009af9" fill-rule="evenodd" fill-opacity="1" stroke="#000000" stroke-opacity="1" stroke-width="3.2"/>
<circle clip-path="url(#clip472)" cx="422.853" cy="666.123" r="14" fill="#009af9" fill-rule="evenodd" fill-opacity="1" stroke="#000000" stroke-opacity="1" stroke-width="3.2"/>
<circle clip-path="url(#clip472)" cx="1053.73" cy="782.497" r="14" fill="#009af9" fill-rule="evenodd" fill-opacity="1" stroke="#000000" stroke-opacity="1" stroke-width="3.2"/>
<circle clip-path="url(#clip472)" cx="1313.55" cy="428.773" r="14" fill="#009af9" fill-rule="evenodd" fill-opacity="1" stroke="#000000" stroke-opacity="1" stroke-width="3.2"/>
<circle clip-path="url(#clip472)" cx="260.428" cy="430.371" r="14" fill="#009af9" fill-rule="evenodd" fill-opacity="1" stroke="#000000" stroke-opacity="1" stroke-width="3.2"/>
<circle clip-path="url(#clip472)" cx="1458.25" cy="1405.97" r="14" fill="#009af9" fill-rule="evenodd" fill-opacity="1" stroke="#000000" stroke-opacity="1" stroke-width="3.2"/>
<circle clip-path="url(#clip472)" cx="387.775" cy="587.933" r="14" fill="#009af9" fill-rule="evenodd" fill-opacity="1" stroke="#000000" stroke-opacity="1" stroke-width="3.2"/>
<circle clip-path="url(#clip472)" cx="1789.75" cy="1063.04" r="14" fill="#009af9" fill-rule="evenodd" fill-opacity="1" stroke="#000000" stroke-opacity="1" stroke-width="3.2"/>
<path clip-path="url(#clip470)" d="
M1983.1 216.178 L2279.55 216.178 L2279.55 95.2176 L1983.1 95.2176  Z
  " fill="#ffffff" fill-rule="evenodd" fill-opacity="1"/>
<polyline clip-path="url(#clip470)" style="stroke:#000000; stroke-linecap:butt; stroke-linejoin:round; stroke-width:4; stroke-opacity:1; fill:none" points="
  1983.1,216.178 2279.55,216.178 2279.55,95.2176 1983.1,95.2176 1983.1,216.178 
  "/>
<circle clip-path="url(#clip470)" cx="2080.71" cy="155.698" r="23" fill="#009af9" fill-rule="evenodd" fill-opacity="1" stroke="#000000" stroke-opacity="1" stroke-width="5.12"/>
<path clip-path="url(#clip470)" d="M2192.16 175.385 Q2190.35 180.015 2188.64 181.427 Q2186.93 182.839 2184.06 182.839 L2180.65 182.839 L2180.65 179.274 L2183.15 179.274 Q2184.91 179.274 2185.89 178.44 Q2186.86 177.607 2188.04 174.505 L2188.8 172.561 L2178.32 147.052 L2182.83 147.052 L2190.93 167.329 L2199.03 147.052 L2203.55 147.052 L2192.16 175.385 Z" fill="#000000" fill-rule="evenodd" fill-opacity="1" /><path clip-path="url(#clip470)" d="M2210.84 169.042 L2218.48 169.042 L2218.48 142.677 L2210.17 144.343 L2210.17 140.084 L2218.43 138.418 L2223.11 138.418 L2223.11 169.042 L2230.75 169.042 L2230.75 172.978 L2210.84 172.978 L2210.84 169.042 Z" fill="#000000" fill-rule="evenodd" fill-opacity="1" /></svg>
