<?xml version="1.0" encoding="UTF-8" standalone="no"?>
<!DOCTYPE svg PUBLIC "-//W3C//DTD SVG 1.1//EN" "http://www.w3.org/Graphics/SVG/1.1/DTD/svg11.dtd">
<svg xmlns="http://www.w3.org/2000/svg" xmlns:xlink="http://www.w3.org/1999/xlink" version="1.1" width="612pt" height="792pt" viewBox="0 0 612 792">
<g enable-background="new">
<path transform="matrix(1,0,0,-1,159.041,152.87201)" stroke-width=".79701" stroke-linecap="butt" stroke-miterlimit="10" stroke-linejoin="miter" fill="none" stroke="#000000" d="M 0 0 L 307.1524 0 "/>
<path transform="matrix(1,0,0,-1,466.19343,152.87201)" d="M 4.66248 0 C 3.28098 .25902 1.0361 1.0361 -.51805 1.94269 L -.51805 -1.94269 C 1.0361 -1.0361 3.28098 -.25902 4.66248 0 "/>
<path transform="matrix(1,0,0,-1,159.041,152.87201)" stroke-width=".79701" stroke-linecap="butt" stroke-miterlimit="10" stroke-linejoin="miter" fill="none" stroke="#000000" d="M 0 5.66927 L 0 -5.66927 "/>
<path transform="matrix(1,0,0,-1,159.041,152.87201)" d="M -10.32909 11.73712 L 10.329081 11.73712 L 10.329081 25.91049 L -10.32909 25.91049 Z " fill="#ffffff"/>
<text xml:space="preserve" transform="matrix(1 0 -0 1 0 792)" font-size="9.9626" font-family="CMR10"><tspan y="-654.547" x="152.033">2</tspan></text>
<text xml:space="preserve" transform="matrix(1 0 -0 1 0 792)" font-size="9.9626" font-family="CMMI10" font-style="italic"><tspan y="-654.547" x="157.014">X</tspan></text>
<path transform="matrix(1,0,0,-1,159.041,152.87201)" d="M -8.50403 -25.9105 L 8.50403 -25.9105 L 8.50403 -11.737129 L -8.50403 -11.737129 Z " fill="#ffffff"/>
<text xml:space="preserve" transform="matrix(1 0 -0 1 0 792)" font-size="9.9626" font-family="CMR10"><tspan y="-617.094" x="156.551">0</tspan></text>
<path transform="matrix(1,0,0,-1,159.041,152.87201)" stroke-width=".79701" stroke-linecap="butt" stroke-miterlimit="10" stroke-linejoin="miter" fill="none" stroke="#000000" d="M 28.3468 5.66927 L 28.3468 -5.66927 "/>
<path transform="matrix(1,0,0,-1,159.041,152.87201)" d="M 19.84277 11.73712 L 36.85083 11.73712 L 36.85083 25.91049 L 19.84277 25.91049 Z " fill="#ffffff"/>
<path transform="matrix(1,0,0,-1,159.041,152.87201)" d="M 19.84277 -25.9105 L 36.85083 -25.9105 L 36.85083 -11.737129 L 19.84277 -11.737129 Z " fill="#ffffff"/>
<text xml:space="preserve" transform="matrix(1 0 -0 1 0 792)" font-size="9.9626" font-family="CMR10"><tspan y="-617.094" x="184.897">1</tspan></text>
<path transform="matrix(1,0,0,-1,159.041,152.87201)" stroke-width=".79701" stroke-linecap="butt" stroke-miterlimit="10" stroke-linejoin="miter" fill="none" stroke="#000000" d="M 56.69362 5.66927 L 56.69362 -5.66927 "/>
<path transform="matrix(1,0,0,-1,159.041,152.87201)" d="M 48.18958 11.73712 L 65.19764 11.73712 L 65.19764 25.91049 L 48.18958 25.91049 Z " fill="#ffffff"/>
<path transform="matrix(1,0,0,-1,159.041,152.87201)" d="M 48.18958 -25.9105 L 65.19764 -25.9105 L 65.19764 -11.737129 L 48.18958 -11.737129 Z " fill="#ffffff"/>
<text xml:space="preserve" transform="matrix(1 0 -0 1 0 792)" font-size="9.9626" font-family="CMR10"><tspan y="-617.094" x="213.243">2</tspan></text>
<path transform="matrix(1,0,0,-1,159.041,152.87201)" stroke-width=".79701" stroke-linecap="butt" stroke-miterlimit="10" stroke-linejoin="miter" fill="none" stroke="#000000" d="M 85.04042 5.66927 L 85.04042 -5.66927 "/>
<path transform="matrix(1,0,0,-1,159.041,152.87201)" d="M 76.53639 11.73712 L 93.54445 11.73712 L 93.54445 25.91049 L 76.53639 25.91049 Z " fill="#ffffff"/>
<path transform="matrix(1,0,0,-1,159.041,152.87201)" d="M 76.53639 -25.9105 L 93.54445 -25.9105 L 93.54445 -11.737129 L 76.53639 -11.737129 Z " fill="#ffffff"/>
<text xml:space="preserve" transform="matrix(1 0 -0 1 0 792)" font-size="9.9626" font-family="CMR10"><tspan y="-617.094" x="241.59">3</tspan></text>
<path transform="matrix(1,0,0,-1,159.041,152.87201)" stroke-width=".79701" stroke-linecap="butt" stroke-miterlimit="10" stroke-linejoin="miter" fill="none" stroke="#000000" d="M 113.38724 5.66927 L 113.38724 -5.66927 "/>
<path transform="matrix(1,0,0,-1,159.041,152.87201)" d="M 104.8832 11.73712 L 121.891269 11.73712 L 121.891269 25.91049 L 104.8832 25.91049 Z " fill="#ffffff"/>
<path transform="matrix(1,0,0,-1,159.041,152.87201)" d="M 104.8832 -25.9105 L 121.891269 -25.9105 L 121.891269 -11.737129 L 104.8832 -11.737129 Z " fill="#ffffff"/>
<text xml:space="preserve" transform="matrix(1 0 -0 1 0 792)" font-size="9.9626" font-family="CMR10"><tspan y="-617.094" x="269.936">4</tspan></text>
<path transform="matrix(1,0,0,-1,159.041,152.87201)" stroke-width=".79701" stroke-linecap="butt" stroke-miterlimit="10" stroke-linejoin="miter" fill="none" stroke="#000000" d="M 141.73404 5.66927 L 141.73404 -5.66927 "/>
<path transform="matrix(1,0,0,-1,159.041,152.87201)" d="M 133.23001 11.73712 L 150.23807 11.73712 L 150.23807 25.91049 L 133.23001 25.91049 Z " fill="#ffffff"/>
<path transform="matrix(1,0,0,-1,159.041,152.87201)" d="M 133.23001 -25.9105 L 150.23807 -25.9105 L 150.23807 -11.737129 L 133.23001 -11.737129 Z " fill="#ffffff"/>
<text xml:space="preserve" transform="matrix(1 0 -0 1 .000030517579 792)" font-size="9.9626" font-family="CMR10"><tspan y="-617.094" x="298.283">5</tspan></text>
<path transform="matrix(1,0,0,-1,159.041,152.87201)" stroke-width=".79701" stroke-linecap="butt" stroke-miterlimit="10" stroke-linejoin="miter" fill="none" stroke="#000000" d="M 170.08086 5.66927 L 170.08086 -5.66927 "/>
<path transform="matrix(1,0,0,-1,159.041,152.87201)" d="M 161.57682 11.73712 L 178.58487 11.73712 L 178.58487 25.91049 L 161.57682 25.91049 Z " fill="#ffffff"/>
<path transform="matrix(1,0,0,-1,159.041,152.87201)" d="M 161.57682 -25.9105 L 178.58487 -25.9105 L 178.58487 -11.737129 L 161.57682 -11.737129 Z " fill="#ffffff"/>
<text xml:space="preserve" transform="matrix(1 0 -0 1 0 792)" font-size="9.9626" font-family="CMR10"><tspan y="-617.094" x="326.629">6</tspan></text>
<path transform="matrix(1,0,0,-1,159.041,152.87201)" stroke-width=".79701" stroke-linecap="butt" stroke-miterlimit="10" stroke-linejoin="miter" fill="none" stroke="#000000" d="M 198.42766 5.66927 L 198.42766 -5.66927 "/>
<path transform="matrix(1,0,0,-1,159.041,152.87201)" d="M 189.92363 11.73712 L 206.93169 11.73712 L 206.93169 25.91049 L 189.92363 25.91049 Z " fill="#ffffff"/>
<path transform="matrix(1,0,0,-1,159.041,152.87201)" d="M 189.92363 -25.9105 L 206.93169 -25.9105 L 206.93169 -11.737129 L 189.92363 -11.737129 Z " fill="#ffffff"/>
<text xml:space="preserve" transform="matrix(1 0 -0 1 0 792)" font-size="9.9626" font-family="CMR10"><tspan y="-617.094" x="354.976">7</tspan></text>
<path transform="matrix(1,0,0,-1,159.041,152.87201)" stroke-width=".79701" stroke-linecap="butt" stroke-miterlimit="10" stroke-linejoin="miter" fill="none" stroke="#000000" d="M 226.77448 5.66927 L 226.77448 -5.66927 "/>
<path transform="matrix(1,0,0,-1,159.041,152.87201)" d="M 218.27043 11.73712 L 235.27849 11.73712 L 235.27849 25.91049 L 218.27043 25.91049 Z " fill="#ffffff"/>
<path transform="matrix(1,0,0,-1,159.041,152.87201)" d="M 218.27043 -25.9105 L 235.27849 -25.9105 L 235.27849 -11.737129 L 218.27043 -11.737129 Z " fill="#ffffff"/>
<text xml:space="preserve" transform="matrix(1 0 -0 1 .000030517579 792)" font-size="9.9626" font-family="CMR10"><tspan y="-617.094" x="383.322">8</tspan></text>
<path transform="matrix(1,0,0,-1,159.041,152.87201)" stroke-width=".79701" stroke-linecap="butt" stroke-miterlimit="10" stroke-linejoin="miter" fill="none" stroke="#000000" d="M 255.12128 5.66927 L 255.12128 -5.66927 "/>
<path transform="matrix(1,0,0,-1,159.041,152.87201)" d="M 246.61725 11.73712 L 263.6253 11.73712 L 263.6253 25.91049 L 246.61725 25.91049 Z " fill="#ffffff"/>
<path transform="matrix(1,0,0,-1,159.041,152.87201)" d="M 246.61725 -25.9105 L 263.6253 -25.9105 L 263.6253 -11.737129 L 246.61725 -11.737129 Z " fill="#ffffff"/>
<text xml:space="preserve" transform="matrix(1 0 -0 1 0 792)" font-size="9.9626" font-family="CMR10"><tspan y="-617.094" x="411.669">9</tspan></text>
<path transform="matrix(1,0,0,-1,159.041,152.87201)" stroke-width=".79701" stroke-linecap="butt" stroke-miterlimit="10" stroke-linejoin="miter" fill="none" stroke="#000000" d="M 283.4681 5.66927 L 283.4681 -5.66927 "/>
<path transform="matrix(1,0,0,-1,159.041,152.87201)" d="M 274.96409 11.73712 L 291.97215 11.73712 L 291.97215 25.91049 L 274.96409 25.91049 Z " fill="#ffffff"/>
<path transform="matrix(1,0,0,-1,159.041,152.87201)" d="M 274.96409 -25.9105 L 291.97215 -25.9105 L 291.97215 -11.737129 L 274.96409 -11.737129 Z " fill="#ffffff"/>
<text xml:space="preserve" transform="matrix(1 0 -0 1 0 792)" font-size="9.9626" font-family="CMR10"><tspan y="-617.094" x="437.524 442.50529">10</tspan></text>
<path transform="matrix(1,0,0,-1,159.041,152.87201)" d="M 183.44776 9.57698 L 326.7948 9.57698 L 326.7948 28.07063 L 183.44776 28.07063 Z " fill="#ffffff"/>
<text xml:space="preserve" transform="matrix(1 0 -0 1 0 792)" font-size="9.9626" font-family="CMR10"><tspan y="-655.461" x="345.807">2</tspan></text>
<text xml:space="preserve" transform="matrix(1 0 -0 1 0 792)" font-size="9.9626" font-family="CMMI10" font-style="italic"><tspan y="-655.461" x="350.788">X</tspan></text>
<text xml:space="preserve" transform="matrix(1 0 -0 1 0 792)" font-size="9.9626" font-family="CMR10"><tspan y="-655.461" x="359.824 363.69947">(1</tspan></text>
<text xml:space="preserve" transform="matrix(1 0 -0 1 0 792)" font-size="9.9626" font-family="CMSY10" font-style="italic"><tspan y="-655.461" x="370.894">&#x2212;</tspan></text>
<text xml:space="preserve" transform="matrix(1 0 -0 1 0 792)" font-size="6.9738" font-family="CMR7"><tspan y="-659.383" x="382.052">0</tspan></text>
<text xml:space="preserve" transform="matrix(1 0 -0 1 0 792)" font-size="6.9738" font-family="CMMI7" font-style="italic"><tspan y="-659.383" x="386.023">.</tspan></text>
<text xml:space="preserve" transform="matrix(1 0 -0 1 0 792)" font-size="6.9738" font-family="CMR7"><tspan y="-659.383" x="388.389 392.36408">12</tspan></text>
<path transform="matrix(1,0,0,-1,382.052,134.04901)" stroke-width=".398" stroke-linecap="butt" stroke-miterlimit="10" stroke-linejoin="miter" fill="none" stroke="#000000" d="M 0 0 L 14.28 0 "/>
<text xml:space="preserve" transform="matrix(1 0 -0 1 0 792)" font-size="6.9738" font-family="CMR7"><tspan y="-652.025" x="385.22 389.19508">12</tspan></text>
<text xml:space="preserve" transform="matrix(1 0 -0 1 0 792)" font-size="9.9626" font-family="CMR10"><tspan y="-655.461" x="397.527">)</tspan></text>
<text xml:space="preserve" transform="matrix(1 0 -0 1 0 792)" font-size="6.9738" font-family="CMSY7" font-style="italic"><tspan y="-659.076" x="401.401">&#x2212;</tspan></text>
<text xml:space="preserve" transform="matrix(1 0 -0 1 0 792)" font-size="6.9738" font-family="CMR7"><tspan y="-659.076" x="407.628">4</tspan></text>
<text xml:space="preserve" transform="matrix(1 0 -0 1 0 792)" font-size="6.9738" font-family="CMSY7" font-style="italic"><tspan y="-659.076" x="411.599">&#x00d7;</tspan></text>
<text xml:space="preserve" transform="matrix(1 0 -0 1 0 792)" font-size="6.9738" font-family="CMR7"><tspan y="-659.076" x="417.826 421.80107">12</tspan></text>
<text xml:space="preserve" transform="matrix(1 0 -0 1 0 792)" font-size="9.9626" font-family="CMR10"><tspan y="-655.461" x="426.267 430.14247 437.33546">(1+</tspan></text>
<text xml:space="preserve" transform="matrix(1 0 -0 1 0 792)" font-size="6.9738" font-family="CMR7"><tspan y="-659.383" x="448.494">0</tspan></text>
<text xml:space="preserve" transform="matrix(1 0 -0 1 0 792)" font-size="6.9738" font-family="CMMI7" font-style="italic"><tspan y="-659.383" x="452.465">.</tspan></text>
<text xml:space="preserve" transform="matrix(1 0 -0 1 0 792)" font-size="6.9738" font-family="CMR7"><tspan y="-659.383" x="454.832 458.80708">10</tspan></text>
<path transform="matrix(1,0,0,-1,448.494,134.04901)" stroke-width=".398" stroke-linecap="butt" stroke-miterlimit="10" stroke-linejoin="miter" fill="none" stroke="#000000" d="M 0 0 L 14.28 0 "/>
<text xml:space="preserve" transform="matrix(1 0 -0 1 0 792)" font-size="6.9738" font-family="CMR7"><tspan y="-652.025" x="453.649">2</tspan></text>
<text xml:space="preserve" transform="matrix(1 0 -0 1 0 792)" font-size="9.9626" font-family="CMR10"><tspan y="-655.461" x="463.97">)</tspan></text>
<text xml:space="preserve" transform="matrix(1 0 -0 1 0 792)" font-size="6.9738" font-family="CMR7"><tspan y="-659.076" x="467.844">5</tspan></text>
<text xml:space="preserve" transform="matrix(1 0 -0 1 0 792)" font-size="6.9738" font-family="CMSY7" font-style="italic"><tspan y="-659.076" x="471.815">&#x00d7;</tspan></text>
<text xml:space="preserve" transform="matrix(1 0 -0 1 0 792)" font-size="6.9738" font-family="CMR7"><tspan y="-659.076" x="478.042">2</tspan></text>
<path transform="matrix(1,0,0,-1,159.041,152.87201)" stroke-width=".79701" stroke-linecap="butt" stroke-miterlimit="10" stroke-linejoin="miter" fill="none" stroke="#000000" d="M 10.72758 18.8238 L 108.72476 18.8238 "/>
<path transform="matrix(1,0,0,-1,267.76576,134.04822)" d="M 4.66248 0 C 3.28098 .25902 1.0361 1.0361 -.51805 1.94269 L -.51805 -1.94269 C 1.0361 -1.0361 3.28098 -.25902 4.66248 0 "/>
<path transform="matrix(1,0,0,-1,159.041,152.87201)" stroke-width=".79701" stroke-linecap="butt" stroke-miterlimit="10" stroke-linejoin="miter" fill="none" stroke="#000000" d="M 116.2219 18.8238 L 174.3209 18.8238 "/>
<path transform="matrix(1,0,0,-1,333.3619,134.04822)" d="M 4.66248 0 C 3.28098 .25902 1.0361 1.0361 -.51805 1.94269 L -.51805 -1.94269 C 1.0361 -1.0361 3.28098 -.25902 4.66248 0 "/>
<text xml:space="preserve" transform="matrix(1 0 -0 1 0 792)" font-size="9.9626" font-family="CMR10"><tspan y="-89.365" x="303.133">1</tspan></text>
</g>
</svg>
